<?xml version="1.0" encoding="UTF-8"?>
<svg version="1.1" viewBox="0 0 1600 1200" width="1280" height="1280" xmlns="http://www.w3.org/2000/svg">
<path transform="translate(798,237)" d="m0 0c2.43 1.37 4.61 2.71 6.88 4.31 5.21 3.53 10.3 6.31 16.1 8.69 2.17 2.17 1.37 6.76 1.44 9.75 0.0686 1.22 0.0686 1.22 0.139 2.46 0.11 5.86 0.11 5.86-1.8 8.45-4.07 3.57-7.77 4.44-13 4.53-0.825 0.0167-1.65 0.0334-2.5 0.0507-1.33 0.0204-1.33 0.0204-2.68 0.0411-1.38 0.0276-1.38 0.0276-2.8 0.0558-2.95 0.0587-5.9 0.111-8.86 0.163-18-1.33-18-1.33-33.9 2.5-2.29 0.424-4.58 0.813-6.88 1.19-14.4 2.57-27.7 7.1-40.6 14-3.52 1.83-3.52 1.83-7.02 3.33-3.68 1.58-7.18 3.4-10.7 5.31-4.69 2.54-9.39 4.99-14.2 7.31-4.35 2.16-8.35 4.55-12.3 7.3-7.18 4.95-14.6 9.4-22.3 13.6-2.76 1.51-5.5 3.04-8.25 4.56-0.686 0.376-1.37 0.752-2.08 1.14-5.12 2.85-9.41 5.72-13.1 10.4-3.58 4.34-7.99 7.57-12.4 10.9-3.66 2.78-6.87 5.71-10.1 9-1.54 1.38-3.08 2.75-4.62 4.12-6.2 5.54-12 11.5-17.8 17.4-1.37 1.4-2.76 2.8-4.14 4.2-1.21 1.23-1.21 1.23-2.44 2.49-2 1.78-2 1.78-4 1.78-0.404 0.849-0.404 0.849-0.816 1.71-1.24 2.4-2.63 4.6-4.12 6.85-0.504 0.764-1.01 1.53-1.53 2.32-1.39 1.92-2.85 3.46-4.54 5.12-0.66 0.99-1.32 1.98-2 3h-2c-0.249 0.713-0.498 1.43-0.754 2.16-1.38 3.15-3.1 5.55-5.18 8.28-2.84 3.73-4.99 7.37-7.06 11.6-0.63 0.919-1.26 1.84-1.91 2.79-2.63 4.05-4.57 8.25-6.53 12.7-0.592 1.33-0.592 1.33-1.2 2.69-8.51 19.4-12.1 39.2-15.1 60.1-0.157 1.11-0.313 2.23-0.474 3.38-0.137 1-0.274 2-0.415 3.03-0.417 2.4-0.417 2.4-1.42 4.4-0.0309 2.99 0.0673 5.97 0.16 8.96-0.16 3.04-0.16 3.04-1.14 5.32-1.2 3.18-1.41 5.88-1.59 9.27-0.0748 1.26-0.15 2.51-0.227 3.81l-0.211 3.96c-0.421 7.83-0.913 15.1-3 22.7-0.199 2.2-0.349 4.41-0.438 6.62-0.321 4.89-0.996 8.13-3.56 12.4-0.808 1.93-1.53 3.88-2.23 5.86-0.536 1.49-1.1 2.97-1.7 4.45-0.293 0.767-0.585 1.53-0.887 2.32-0.275 0.694-0.549 1.39-0.832 2.1-0.492 3.15 0.631 5.26 1.64 8.27 0.341 2.97 0.413 5.95 0.5 8.94 0.211 15 0.211 15 4.5 29.1 0.125 3.25 0.125 3.25 0 6-1.67 0.402-1.67 0.402-3.38 0.812-3.84 0.846-3.84 0.846-5.62 4.19 0.282 4.33 1.16 7.68 4 11 4.6 1.22 4.6 1.22 9 0 0.338 0.915 0.675 1.83 1.02 2.77 0.446 1.19 0.892 2.38 1.35 3.6 0.661 1.78 0.661 1.78 1.34 3.59 1.08 3.08 1.08 3.08 3.29 5.04 0.658 1.6 1.25 3.23 1.81 4.88 3.79 10.7 8.1 21.4 14 31.1 1.19 2 1.19 2 1.19 4 0.99 0.33 1.98 0.66 3 1 1.36 1.57 1.36 1.57 2.75 3.56 5.59 7.99 12.5 14.9 19.4 21.7 1.29 1.29 1.29 1.29 2.6 2.61 1.81 1.81 3.61 3.61 5.42 5.42 2.75 2.75 5.5 5.5 8.24 8.25 1.76 1.76 3.53 3.53 5.29 5.29 0.812 0.814 1.62 1.63 2.46 2.47 7.27 7.24 14.9 13.9 23 20.3 1.33 1.09 2.61 2.23 3.88 3.39v2c0.531 0.205 1.06 0.409 1.61 0.62 3.39 1.96 5.91 4.68 8.62 7.45 0.597 0.602 1.19 1.2 1.81 1.82 1.91 1.92 3.81 3.86 5.71 5.79 2.49 2.53 4.99 5.05 7.48 7.57 0.894 0.903 0.894 0.903 1.81 1.82 3.7 3.71 7.47 7.28 11.5 10.6 1.47 1.27 1.47 1.27 3.72 3.77 4.63 2.52 9.7 1.52 14.8 0.5 0.99-0.66 1.98-1.32 3-2 0.99 0.33 1.98 0.66 3 1-0.188 1.81-0.188 1.81-1 4-2.5 1.62-2.5 1.62-5 3-0.33 0.66-0.66 1.32-1 2 1.07 0.413 1.07 0.413 2.16 0.835 2.83 1.16 5.53 2.45 8.27 3.81 1.04 0.512 2.09 1.02 3.16 1.55 2.15 1.06 4.3 2.12 6.45 3.2 14.7 7.17 27.7 10.4 43.8 11.4 2.45 0.165 4.89 0.336 7.34 0.51 1.51 0.106 3.01 0.205 4.52 0.297 5.11 0.334 5.11 0.334 7.33 1.44 2.9 0.399 5.78 0.75 8.69 1.06 0.791 0.0909 1.58 0.182 2.4 0.275 3.63 0.399 7.08 0.659 10.7 0.596 3.17 0.0664 3.17 0.0664 5.04 1.02 2.52 1.24 4.63 1.51 7.41 1.83 1.01 0.12 2.01 0.24 3.05 0.363 1.05 0.117 2.09 0.235 3.17 0.355 2.07 0.233 4.15 0.472 6.22 0.719 0.917 0.102 1.83 0.205 2.78 0.311 2.51 0.472 4.28 1.26 6.5 2.47 3.95 1.04 7.74 1.17 11.8 1.19 1.74 0.0213 1.74 0.0213 3.52 0.043 3.27-0.205 6.03-0.828 9.18-1.68 3.23-0.708 6.45-1.05 9.74-1.41 0.66-0.0729 1.32-0.146 2-0.221 2.76-0.304 5.51-0.605 8.27-0.868 9.61-0.932 17.6-2.32 24.1-10 1.86-2.83 2.53-5.78 3.34-9.04h3c0.33-1.65 0.66-3.3 1-5 0.33 0.66 0.66 1.32 1 2 2.88 1.75 5.64 2.74 9 3 1.58-1.42 1.58-1.42 3-3h4c0.33-1.98 0.66-3.96 1-6 0.784 0.165 1.57 0.33 2.38 0.5 3.44 0.679 3.44 0.679 6.62-0.5 0.372-1.32 0.706-2.66 1-4 1-1 1-1 4.88-1.25 3.82 0.0547 3.82 0.0547 6.06 1.5 1.06 1.75 1.06 1.75 1.56 3.88 0.165 0.619 0.33 1.24 0.5 1.88 2.9 1.34 2.9 1.34 5.19 0.0391 0.782-0.467 1.56-0.933 2.37-1.41 0.785-0.461 1.57-0.923 2.38-1.4 1.02-0.607 1.02-0.607 2.06-1.23 0.66-0.33 1.32-0.66 2-1 1.7 0.777 1.7 0.777 3.69 1.94 5.26 2.75 9.6 2.63 15.2 1.06l3.06-1v-2c1.39-0.65 1.39-0.65 2.81-1.31 3.09-1.41 3.09-1.41 4.62-3.25 2.46-2.26 5.38-2.66 8.56-3.44v-2l1.76-0.953c7.81-4.05 7.81-4.05 14.6-9.47 1.83-1.79 3.75-3.18 5.85-4.64 0.873-0.605 1.75-1.21 2.64-1.83 2.32-1.57 4.65-3.13 6.99-4.68 1-0.664 1-0.664 2.03-1.34 1.33-0.877 2.66-1.75 3.99-2.62 3.51-2.3 3.51-2.3 6.67-5.05 1.42-1.42 1.42-1.42 3.36-2.36 2.18-0.984 2.18-0.984 3.88-2.94 2.93-2.84 6.21-4.57 9.75-6.56 2.53-1.62 4.36-3.41 6.44-5.56 1.21-0.965 2.44-1.9 3.69-2.81 2.88-2.12 5.7-4.28 8.5-6.5 4.81-3.77 9.83-7.17 14.9-10.6 2.6-1.88 4.74-3.77 6.92-6.11 2.79-2.97 5.45-5 9-7l3-2c2.69-0.125 2.69-0.125 5 0v-3c0.568 0.104 1.14 0.209 1.72 0.316 2.66 0.28 4.66 0.306 7.28-0.316 2.91-2.64 4.93-5.68 7-9 0.66-0.99 1.32-1.98 2-3h2c0.186-0.66 0.371-1.32 0.562-2 2.51-5.23 6.17-9.84 11.4-12.5 0.681-0.165 1.36-0.33 2.06-0.5 1.61 4.83 0.15 7.54-2 12-0.311 0.777-0.621 1.55-0.941 2.36-9.4 23.5-22.3 45.5-36.1 66.6-0.599 0.927-1.2 1.85-1.82 2.81-0.514 0.785-1.03 1.57-1.56 2.38-0.441 0.674-0.882 1.35-1.34 2.04-1.3 1.78-2.73 3.22-4.29 4.77-0.66 0.99-1.32 1.98-2 3h-2c-0.242 0.737-0.485 1.47-0.734 2.23-1.42 3.11-3.04 4.67-5.52 7.02-5.38 5.71-7.3 11.9-9.56 19.2-1.19 3.56-1.19 3.56-3.19 5.56-2.2 0.202-4.41 0.313-6.62 0.375-6.24 0.365-10.2 1.18-15.4 4.62-0.467 0.694-0.933 1.39-1.41 2.1-1.59 1.9-1.59 1.9-3.79 2.4-0.821 0.0193-1.64 0.0387-2.49 0.0586-7.25 0.454-12.9 3.08-19.3 6.44 0.607 3.29 1.74 5.26 3.81 7.88 7.19 9.3 7.19 9.3 7.19 13.1-3.77-1.26-4.08-2.66-6-6-3.27-1.64-6.48-1.66-10-1-5.07 2.93-8.77 7.88-12.4 12.4-1.58 1.64-1.58 1.64-4.58 2.64-0.681 1.66-1.35 3.33-2 5-0.99 0.66-1.98 1.32-3 2-0.33 0.99-0.66 1.98-1 3-0.763 0.206-1.53 0.412-2.31 0.625-3.64 1.86-4.36 4.07-5.99 7.7-0.952 3.65-0.807 6.91-0.699 10.7-0.565 0.0804-1.13 0.161-1.71 0.244-2.56 0.369-5.11 0.75-7.66 1.13-1.33 0.189-1.33 0.189-2.7 0.383-1.28 0.193-1.28 0.193-2.58 0.391-1.18 0.173-1.18 0.173-2.38 0.349-2.19 0.379-2.19 0.379-3.97 2.5-0.465 2.23-0.465 2.23-0.625 4.75-0.0735 0.889-0.147 1.78-0.223 2.7-0.17 2.86-0.228 5.69-0.152 8.55-0.413-0.454-0.825-0.908-1.25-1.38-1.64-1.7-1.64-1.7-3.68-2.47-2.5-1.39-3.41-2.83-4.95-5.21-2.39-3.3-2.39-3.3-6.06-5.06-2.91 0.119-5.23 0.74-8 1.56-2.27 0.616-4.53 1.08-6.84 1.53-0.826 0.16-1.65 0.321-2.5 0.486-1.71 0.328-3.43 0.648-5.14 0.961-0.819 0.162-1.64 0.324-2.48 0.49-0.741 0.139-1.48 0.278-2.25 0.422-2.24 0.607-2.24 0.607-3.86 3.68-0.39 1.99-0.732 3.99-1 6-7.56 1.08-12.4-1.28-18.8-4.89-9.52-5.22-18.5-6.54-29.3-6.17-7.54 0.226-14.6 0.169-21.9-1.94-0.33-0.33-0.66-0.66-1-1-19.6-4.14-40.2-4.28-60.1-1.51-5.34 0.69-10.7 0.982-16.1 1.26-2.82 0.0625-2.82 0.0625-4.88 1.25-2.04 0.0707-4.08 0.0842-6.12 0.0625l-3.32-0.0273c-0.843-0.0116-1.69-0.0232-2.55-0.0352-0.66-2.31-1.32-4.62-2-7l-2.34-0.48c-5.86-1.31-10.7-2.71-15.6-6.13-2.46-1.66-5.01-3.05-7.62-4.45-4.18-2.25-8.32-4.56-12.4-6.94v-2c-1.14-0.236-2.28-0.472-3.45-0.715-4.88-1.22-8.99-3.41-13.4-5.85-1.48-0.816-2.97-1.63-4.46-2.44-0.968-0.539-0.968-0.539-1.96-1.09-4.33-2.22-8.61-2.28-13.4-2.63-2.4-0.281-2.4-0.281-3.4-1.28-1.52-0.16-3.04-0.277-4.56-0.375-12.1-1.13-21.6-7.79-31.1-15-3.88-2.73-7.21-2.88-11.8-3.14-1.91-0.117-1.91-0.117-3.87-0.236-2.02-0.119-4.05-0.236-6.07-0.348-1.96-0.11-3.92-0.231-5.88-0.353-1.17-0.067-2.34-0.134-3.54-0.203-3.09-0.383-5.35-1.15-8.18-2.39-1.26-0.289-2.52-0.578-3.81-0.875-12.4-3.06-20.3-11.3-27.1-21.7-6.48-10.8-10-23.1-12.5-35.4-1.12-5.02-2.17-7.97-6.56-11-0.846-0.268-1.69-0.536-2.56-0.812-3.89-1.89-4.92-5.28-6.44-9.19-0.442-1.33-0.879-2.67-1.31-4.01-1.93-5.87-4.25-11.6-6.56-17.3l-1.28-3.19c-4.43-11-8.98-21.9-14.1-32.7-1.72-3.68-3.21-7.44-4.7-11.2-1.75-4.38-3.62-8.72-5.48-13.1-0.395-0.922-0.791-1.84-1.2-2.79-2.35-5.46-4.76-10.9-7.25-16.3-1.72-3.82-3.31-7.69-4.91-11.6-1.2-3-1.2-3-2.84-6.07-2.1-4.88-1.77-9.93-1.68-15.2l-0.00977-3.03c0.0549-7.39 0.0549-7.39 2.32-9.65 3.62-0.125 3.62-0.125 7 0-0.115-2.69-0.242-5.38-0.375-8.06-0.0309-0.752-0.0619-1.5-0.0938-2.28-0.251-4.83-1.04-9.02-2.53-13.7l-0.93-3.32c-2.15-7.64-4.43-15.2-7.07-22.7-0.357-1.01-0.714-2.03-1.08-3.07-3.75-10.2-8.59-19.8-13.8-29.4-4.58-8.53-4.58-8.53-4.05-12.7 0.938-2.88 0.938-2.88 1.94-4.88 1.25-6.18 1.96-12.5 2.62-18.7 6.9-64.9 6.9-64.9 25.4-87.3 0.962-1.7 1.92-3.4 2.87-5.11 3.33-5.59 7.42-10.4 12.1-14.9 1.17-1.19 2.33-2.37 3.5-3.56 3.34-3.33 6.88-6.2 10.6-9.06 4.24-3.25 8.18-6.5 11.9-10.4l1.79-1.72c0.628-0.607 1.26-1.21 1.9-1.84 0.581-0.558 1.16-1.12 1.76-1.69 1.62-1.82 2.5-3.56 3.55-5.75l4-4c0.33-0.99 0.66-1.98 1-3 0.66-0.33 1.32-0.66 2-1 1.07-2.37 1.07-2.37 2-5.19 0.348-0.996 0.696-1.99 1.05-3.02 0.695-2.05 1.38-4.11 2.07-6.17 0.289-0.866 0.578-1.73 0.875-2.62 0.227-0.825 0.454-1.65 0.688-2.5 1.66-3.16 3.83-4.81 6.58-7.03 2.24-1.91 3.9-4.17 5.73-6.47 1.44-1.19 2.89-2.37 4.35-3.54 4.11-3.62 7.62-7.91 10.7-12.5 0.99-0.33 1.98-0.66 3-1 0.289-0.598 0.578-1.2 0.875-1.81 1.49-2.9 3.57-4.14 6.12-6.19 0.949-1.16 1.89-2.33 2.81-3.5 4.17-4.93 9.3-8.52 14.5-12.3 3.51-2.54 6.71-5.04 9.69-8.21 5.46-4.76 9.43-6.28 16.7-6.05 1.91 0.0367 1.91 0.0367 3.86 0.0742 2.01 0.0497 4.02 0.106 6.03 0.172 1.95 0.0605 3.91 0.0948 5.86 0.128 1.74 0.0505 1.74 0.0505 3.52 0.102 3.7-0.514 4.78-1.51 7.04-4.42 0.693-1.66 1.36-3.32 2-5 0.66-0.33 1.32-0.66 2-1 0.454-0.908 0.908-1.82 1.38-2.75 2.17-4.34 3.9-7.68 8.62-9.25 0.619-0.65 0.619-0.65 1.25-1.31 6.93-6.68 15.5-7.61 24.7-7.92 7.23-0.266 13.3-0.895 19-5.77 0.53-0.715 1.06-1.43 1.61-2.17 0.46-0.605 0.92-1.21 1.39-1.83h2c0.373-0.888 0.373-0.888 0.754-1.79 1.43-2.52 2.87-3.79 5.18-5.52 1.03-0.799 1.03-0.799 2.09-1.61 0.651-0.354 1.3-0.709 1.97-1.07 0.99 0.33 1.98 0.66 3 1 0.33 4.62 0.66 9.24 1 14 0.66-0.66 1.32-1.32 2-2 16.8-11.2 35.4-18.9 54.2-25.8 3.11-1.14 5.97-2.29 8.86-3.94 3.86-1.64 5.86-1.17 9.94-0.25zm-109 38 4 1zm-216 366 1 2zm-6 21v1h7v-1h-7zm24 36c-2.24 2.73-2.24 2.73-1.94 5.38 1.24 3.48 3.15 5.25 5.94 7.62h2c-0.0873-1.61-0.196-3.21-0.312-4.81l-0.176-2.71c-0.579-2.81-1.23-3.79-3.51-5.48h-2zm9 0c0.983 7.04 2.4 12.9 6 19 0.495 0.928 0.99 1.86 1.5 2.81 1.61 2.34 3.09 3.71 5.5 5.19h2c0.33 0.66 0.66 1.32 1 2-0.513-5.47-1.9-9.53-4.44-14.4-0.313-0.628-0.625-1.26-0.947-1.9-1.64-3.48-1.64-3.48-4.62-5.72-0.289-0.804-0.578-1.61-0.875-2.44-1.33-3.02-2.21-3.29-5.12-4.56zm-4 14c0.33 0.99 0.66 1.98 1 3h2v-3h-3zm587 63c-0.33 0.99-0.66 1.98-1 3h2c-0.33-0.99-0.66-1.98-1-3zm-208 93 1 2zm17 0c-0.66 0.66-1.32 1.32-2 2h3c-0.33-0.66-0.66-1.32-1-2zm48 87 1 2z" fill="#491E9E"/>
<path transform="translate(900 260)" d="m0 0c0.898-0.00315 1.8-0.0063 2.72-0.00955 0.969 0.00202 1.94 0.00405 2.94 0.00613 1-9.57e-4 2-0.00191 3.03-0.0029 2.12-6.81e-4 4.24 0.00117 6.35 0.00534 3.23 0.00533 6.46 6.34e-5 9.68-0.00635 2.06 6.61e-4 4.12 0.00194 6.18 0.00391 0.961-0.00202 1.92-0.00405 2.91-0.00613 5.02 0.0174 9.78 0.281 14.7 1.14 0.81 0.138 1.62 0.276 2.45 0.418 3.48 0.796 6.89 1.83 10.3 2.89 1.07 0.334 1.07 0.334 2.16 0.676 4.43 1.41 8.68 2.98 12.9 4.99 2.25 1.04 4.51 1.95 6.82 2.85 13.3 5.29 26.2 11.1 37.4 20.2 2.14 1.61 4.29 3.21 6.44 4.81 1.85 1.4 3.71 2.79 5.56 4.19 0.775 0.54 1.55 1.08 2.35 1.64 0.545 0.45 1.09 0.9 1.65 1.36v2c0.577 0.268 1.15 0.536 1.75 0.812 2.31 1.22 4.27 2.49 6.25 4.19v2c0.583 0.251 1.17 0.503 1.77 0.762 8.51 4.71 13.5 15.1 18.2 23.2 0.571 0.913 1.14 1.83 1.73 2.77 1.27 2.23 1.27 2.23 1.27 4.23h2c0.385 0.713 0.385 0.713 0.777 1.44 2.11 3.86 4.28 7.67 6.56 11.4 0.407 0.671 0.815 1.34 1.23 2.03 0.823 1.35 1.65 2.7 2.48 4.05 2.95 4.84 2.95 4.84 2.95 7.05h2c1.26 1.8 1.26 1.8 2.69 4.31 2.23 3.85 4.53 7.63 6.94 11.4 2.2 3.44 4.3 6.89 6.29 10.4 1.99 3.41 4.16 6.71 6.29 10 1.66 2.63 3.27 5.28 4.86 7.96 1.87 3.15 3.81 6.22 5.88 9.25 3.03 4.49 5.75 9.13 8.45 13.8 1.51 2.74 1.51 2.74 3.14 4.9 2.02 3.99 2.24 7.69 2.6 12.1 0.0822 0.878 0.164 1.76 0.249 2.66 0.26 2.79 0.502 5.59 0.743 8.39 0.251 2.81 0.505 5.62 0.765 8.43 0.16 1.75 0.315 3.49 0.464 5.24 0.00298 3.86 0.00298 3.86 1.65 7.08 1.26 11.4 1.29 23 1.56 34.4 0.0433 1.71 0.087 3.43 0.131 5.14 0.105 4.14 0.207 8.28 0.307 12.4 1.65 0.33 3.3 0.66 5 1 0.33-1.32 0.66-2.64 1-4 1.32 0.66 2.64 1.32 4 2-0.283 2.25-0.577 4.5-0.875 6.75-0.162 1.25-0.325 2.51-0.492 3.8-0.633 3.45-0.633 3.45-1.66 5.39-1.53 3.26-1.44 6.7-1.59 10.2-0.0387 0.737-0.0773 1.47-0.117 2.23-0.185 3.29-0.185 3.29-0.258 6.58-0.33 0.99-0.66 1.98-1 3-0.145 1.41-0.246 2.82-0.316 4.23-0.0419 0.802-0.0838 1.6-0.127 2.43-0.059 1.25-0.059 1.25-0.119 2.53-0.0432 0.845-0.0864 1.69-0.131 2.56-0.106 2.08-0.207 4.17-0.307 6.25h-2c-0.167-4.68-0.328-9.36-0.482-14-0.0535-1.59-0.109-3.19-0.166-4.78-0.0817-2.29-0.157-4.57-0.231-6.86-0.0406-1.08-0.0406-1.08-0.0819-2.17-0.0521-1.71-0.051-3.43-0.0392-5.14 0.33-0.33 0.66-0.66 1-1 0.391-1.51 0.74-3.03 1.06-4.56 0.177-0.826 0.353-1.65 0.535-2.5 0.133-0.638 0.266-1.28 0.402-1.93-0.99 0.66-1.98 1.32-3 2-3.06 0.25-3.06 0.25-6 0-2.44-2.44-2.15-3.12-2.38-6.44-1.17-6.64-5.78-9.84-10.6-14-3.66-3.19-6.32-6.58-8.98-10.6-0.41-0.567-0.82-1.13-1.24-1.72-1.9-2.67-2.76-3.93-2.76-7.28h-2c-1.18-2.01-2.35-4.03-3.5-6.06-0.65-1.13-1.3-2.25-1.97-3.41-1.67-3.85-1.9-6.38-1.53-10.5 0.33-0.66 0.66-1.32 1-2 0.266-3.01 0.232-6.04 0.25-9.06 0.0206-0.822 0.0412-1.64 0.0625-2.49 0.0569-9.04-2.09-16-8.29-22.6-2.05-1.85-4.11-3.25-6.46-4.7-5.66-3.55-11.6-9.06-13.2-15.7-0.12-0.788-0.24-1.58-0.363-2.39-0.695-1.65-1.39-3.31-2.11-4.95-4.64-10.7-7.89-22.3-7.89-34-0.857 0.361-1.71 0.722-2.6 1.09-12.3 4.99-12.3 4.99-17.4 3.91-3.21-1.73-6.08-3.82-9-6-1.73-1.21-3.46-2.42-5.19-3.62-0.777-0.549-1.55-1.1-2.36-1.66-1.77-1.23-3.55-2.44-5.34-3.63-3.91-2.61-7.76-5.3-11.6-7.99-3.15-2.21-3.15-2.21-6.5-4.09v-2c-0.66-0.206-1.32-0.413-2-0.625-3.29-1.51-5.82-3.37-8.66-5.59-3.65-2.8-7.44-5.41-11.2-8.05-0.701-0.572-1.4-1.14-2.12-1.73v-2c-1.04-0.371-1.04-0.371-2.1-0.75-3.32-1.43-6.26-3.27-9.27-5.25-0.599-0.389-1.2-0.779-1.82-1.18-3.32-2.17-6.62-4.36-9.92-6.57-1.01-0.674-1.01-0.674-2.03-1.36-1.3-0.87-2.59-1.74-3.88-2.62-2.91-1.96-5.77-3.82-8.98-5.28v-2c-0.908-0.268-1.82-0.536-2.75-0.812-3.04-1.11-4.77-2.19-7.25-4.19-3.46-2.14-6.99-4.12-10.6-6.06-0.929-0.507-1.86-1.01-2.82-1.54-0.865-0.463-1.73-0.926-2.62-1.4-0.601-0.369-1.2-0.737-1.82-1.12-3.38-1.37-6.9-1.59-10.5-1.95-1.48-0.157-2.95-0.314-4.43-0.473-0.716-0.0764-1.43-0.153-2.17-0.231-11.7-1.31-20.1-4.96-30.1-11.2-0.708-0.436-1.42-0.871-2.14-1.32-4.97-3.27-8.82-7.09-10.5-12.9-0.872-5.46-0.209-9.06 2.63-13.8 2.44-1.81 2.44-1.81 5-3 0.617-0.35 1.23-0.699 1.87-1.06 2.44-1.08 4.14-1.18 6.79-1.17 0.876 0.00193 1.75 0.00387 2.65 0.00586 0.907 0.0122 1.81 0.0245 2.75 0.0371 0.911 6.45e-4 1.82 0.00129 2.76 0.00195 6.76 0.0448 6.76 0.0448 10.2 1.19 1.8-1.17 1.8-1.17 3.5-2.88 3.53-3.33 6.11-4.25 11-4.25zm245 277 1 2zm-3 22 1 2z" fill="#491E9E"/>
<path transform="translate(1052,836)" d="m0 0c4.75 0.75 4.75 0.75 7 3 2.58 0.167 2.58 0.167 5 0-1.16 2.73-2.39 4.43-4.41 6.66-2.88 3.41-4.06 6.84-5.27 11.1-2.08 7.02-2.08 7.02-4.31 9.25-2.2 0.202-4.41 0.313-6.62 0.375-6.24 0.365-10.2 1.18-15.4 4.62-0.467 0.694-0.933 1.39-1.41 2.1-1.59 1.9-1.59 1.9-3.79 2.4-0.821 0.0193-1.64 0.0387-2.49 0.0586-7.25 0.454-12.9 3.08-19.3 6.44 0.607 3.29 1.74 5.26 3.81 7.88 7.19 9.3 7.19 9.3 7.19 13.1-3.77-1.26-4.08-2.66-6-6-3.27-1.64-6.48-1.66-10-1-5.07 2.93-8.77 7.88-12.4 12.4-1.58 1.64-1.58 1.64-4.58 2.64-0.681 1.66-1.35 3.33-2 5-1.49 0.99-1.49 0.99-3 2-0.33 0.99-0.66 1.98-1 3-1.14 0.309-1.14 0.309-2.31 0.625-3.64 1.86-4.36 4.07-5.99 7.7-0.952 3.65-0.807 6.91-0.699 10.7-0.565 0.0804-1.13 0.161-1.71 0.244-2.56 0.369-5.11 0.75-7.66 1.13-0.889 0.126-1.78 0.253-2.7 0.383-1.28 0.193-1.28 0.193-2.58 0.391-0.786 0.115-1.57 0.23-2.38 0.349-2.19 0.379-2.19 0.379-3.97 2.5-0.465 2.23-0.465 2.23-0.625 4.75-0.0735 0.889-0.147 1.78-0.223 2.7-0.17 2.86-0.228 5.69-0.152 8.55-0.413-0.454-0.825-0.908-1.25-1.38-1.64-1.7-1.64-1.7-3.68-2.47-2.5-1.39-3.41-2.83-4.95-5.21-2.39-3.3-2.39-3.3-6.06-5.06-2.91 0.119-5.23 0.74-8 1.56-2.27 0.616-4.53 1.08-6.84 1.53-0.826 0.16-1.65 0.321-2.5 0.486-1.71 0.328-3.43 0.648-5.14 0.961-0.819 0.162-1.64 0.324-2.48 0.49-0.741 0.139-1.48 0.278-2.25 0.422-2.24 0.607-2.24 0.607-3.86 3.68-0.39 1.99-0.732 3.99-1 6-7.56 1.08-12.4-1.28-18.8-4.89-9.52-5.22-18.5-6.54-29.3-6.17-7.54 0.226-14.6 0.169-21.9-1.94-0.33-0.33-0.66-0.66-1-1-19.6-4.14-40.2-4.28-60.1-1.51-5.34 0.69-10.7 0.982-16.1 1.26-2.82 0.0625-2.82 0.0625-4.88 1.25-2.04 0.0707-4.08 0.0842-6.12 0.0625-1.1-0.00902-2.19-0.018-3.32-0.0273-1.26-0.0174-1.26-0.0174-2.55-0.0352-0.99-3.47-0.99-3.47-2-7-1.16-0.238-1.16-0.238-2.34-0.48-5.86-1.31-10.7-2.71-15.6-6.13-2.46-1.66-5.01-3.05-7.62-4.45-4.18-2.25-8.32-4.56-12.4-6.94v-2c-1.14-0.236-2.28-0.472-3.45-0.715-4.88-1.22-8.99-3.41-13.4-5.85-1.48-0.816-2.97-1.63-4.46-2.44-0.646-0.359-1.29-0.718-1.96-1.09-4.33-2.22-8.61-2.28-13.4-2.63-2.4-0.281-2.4-0.281-3.4-1.28-1.52-0.16-3.04-0.277-4.56-0.375-12.1-1.13-21.6-7.79-31.1-15-3.88-2.73-7.21-2.88-11.8-3.14-1.28-0.078-2.55-0.156-3.87-0.236-2.02-0.119-4.05-0.236-6.07-0.348-1.96-0.11-3.92-0.231-5.88-0.353-1.17-0.067-2.34-0.134-3.54-0.203-3.09-0.383-5.35-1.15-8.18-2.39-1.89-0.433-1.89-0.433-3.81-0.875-6.35-1.54-11.9-4.1-16.2-9.12 1.56-0.688 1.56-0.688 4-1 2.35 0.958 4.68 1.96 7 3 1.99 0.398 3.99 0.755 6 1 0.33-1.65 0.66-3.3 1-5h6c0.33 1.65 0.66 3.3 1 5h1v-3h2v-3c1.48-0.495 1.48-0.495 3-1v-2h-2c0.33-1.32 0.66-2.64 1-4h4v2h2c0.66-1.98 1.32-3.96 2-6 0.495 0.99 0.495 0.99 1 2 0.99 0.33 1.98 0.66 3 1 0.495 1.49 0.495 1.49 1 3h4c0.33 0.99 0.66 1.98 1 3-0.804 0.124-1.61 0.247-2.44 0.375-0.846 0.206-1.69 0.413-2.56 0.625-0.495 0.99-0.495 0.99-1 2h-2c0.495 2.97 0.495 2.97 1 6 4.79 1.63 8.06 2.21 13 1v4h2c0.495-0.99 0.495-0.99 1-2 0.33 0.66 0.66 1.32 1 2 0.784 0.309 1.57 0.619 2.38 0.938 2.68 1.09 3.74 1.94 5.62 4.06 0.722 0.722 1.44 1.44 2.19 2.19 0.598 0.598 1.2 1.2 1.81 1.81 0.495-0.99 0.495-0.99 1-2 0.66-0.33 1.32-0.66 2-1 1.06 2.37 1.06 2.37 2 5-0.495 0.99-0.495 0.99-1 2 0.99-0.33 1.98-0.66 3-1v2c3.35-0.949 6.69-1.9 10-3 3.06-0.25 3.06-0.25 6 0 0.66 0.99 1.32 1.98 2 3v-2h2c0.33 0.99 0.66 1.98 1 3h2v-2c0.66 0.33 1.32 0.66 2 1-0.33 0.66-0.66 1.32-1 2h2c0.33 1.32 0.66 2.64 1 4 5.44 0.495 5.44 0.495 11 1 0.33 1.65 0.66 3.3 1 5 4.62 1.04 4.62 1.04 9 0v2h5c0.33 1.32 0.66 2.64 1 4l5-1v5h10c0.66 1.98 1.32 3.96 2 6h3c0.474 0.66 0.949 1.32 1.44 2 0.516 0.66 1.03 1.32 1.56 2h4c0.598-0.639 1.2-1.28 1.81-1.94 2.91-2.74 5.28-2.76 9.19-3.06-0.99-0.66-1.98-1.32-3-2l5-1c0.103 0.639 0.206 1.28 0.312 1.94 0.34 1.02 0.34 1.02 0.688 2.06 0.99 0.33 1.98 0.66 3 1 0.688 2.06 0.688 2.06 1 4 1.61 0.217 1.61 0.217 3.25 0.438 7.8 1.17 7.8 1.17 10.8 4.56 0.33-0.99 0.66-1.98 1-3-0.99-0.99-1.98-1.98-3-3h8c0.124-0.928 0.247-1.86 0.375-2.81 0.625-3.19 0.625-3.19 2.62-6.19 2.6-0.293 2.6-0.293 5.62-0.188 1 0.0271 2.01 0.0541 3.04 0.082 0.771 0.0348 1.54 0.0696 2.34 0.105v-2c5.15-0.863 10-1.1 15.2-1 5.45 0.142 5.45 0.142 10.8-1 2.69 0.438 2.69 0.438 5 1 0.33 1.98 0.66 3.96 1 6-0.99 0.66-1.98 1.32-3 2-0.66-0.33-1.32-0.66-2-1 0.33 0.66 0.66 1.32 1 2 0.804-0.0206 1.61-0.0412 2.44-0.0625 2.56 0.0625 2.56 0.0625 3.56 1.06 2.33 0.368 4.66 0.702 7 1 0.412 3.6 0.154 4.78-2 7.81-0.66 0.722-1.32 1.44-2 2.19h2v2c0.724-0.205 1.45-0.41 2.2-0.621 8.2-2.29 8.2-2.29 12.4-2.94 1.18-0.217 1.18-0.217 2.38-0.438 1.22-2.07 1.22-2.07 1-5-0.33-0.99-0.66-1.98-1-3 0.675-0.049 1.35-0.098 2.05-0.148 1.34-0.112 1.34-0.112 2.7-0.227 1.32-0.104 1.32-0.104 2.67-0.211 2.6-0.418 4.36-1 6.58-2.41 0.805-2.05 0.805-2.05 1-4 2 2 2 2 2 5 5.02 1.13 8.98 0.779 14 0 0.33-0.99 0.66-1.98 1-3h6c1 3 1 3 0 6 3.96 0.495 3.96 0.495 8 1-0.66 0.66-1.32 1.32-2 2 1.09-0.0412 2.19-0.0825 3.31-0.125 3.69 0.125 3.69 0.125 6.69 2.12v2c-3.88 1-3.88 1-5 1-2.34 0.656-4.67 1.32-7 2 3.38 2.98 6.71 3.81 11 5 0.66 0.66 1.32 1.32 2 2 4.05 0.345 5.55 0.302 9-2 2.26-0.195 2.26-0.195 4.69-0.125 0.808 0.018 1.62 0.0361 2.45 0.0547 0.615 0.0232 1.23 0.0464 1.86 0.0703v-4h-3c-2-5.75-2-5.75-2-8h2v-2c0.887-0.247 1.77-0.495 2.69-0.75 3.39-1.07 3.39-1.07 5.88-3.44 2.44-1.81 2.44-1.81 5-1.5 0.804 0.227 1.61 0.454 2.44 0.688 1.32-0.33 2.64-0.66 4-1v-9h7v2c1.65 0.66 3.3 1.32 5 2v-4h-4c-0.33-0.99-0.66-1.98-1-3-0.66-0.66-1.32-1.32-2-2h2v-5c0.784 0.66 1.57 1.32 2.38 2 2.34 2.2 2.34 2.2 4.62 2 0.33 0.99 0.66 1.98 1 3h-2c0.33 1.65 0.66 3.3 1 5 1.65 0.33 3.3 0.66 5 1l-2 1v2h-3c0.66 1.65 1.32 3.3 2 5 0.33-0.66 0.66-1.32 1-2 2.88-0.188 2.88-0.188 6 0 0.66 0.99 1.32 1.98 2 3v-4c2.67-1.78 5.03-2.88 8-4v-5c0.927-0.121 1.85-0.242 2.81-0.367 1.2-0.168 2.4-0.335 3.63-0.508 1.19-0.162 2.39-0.325 3.62-0.492 0.971-0.209 1.94-0.418 2.94-0.633 0.33-0.66 0.66-1.32 1-2h-2v-2c1.65-0.66 3.3-1.32 5-2v-6l-2-1h3c-0.33-0.99-0.66-1.98-1-3h2v3h2c-0.186-0.763-0.371-1.53-0.562-2.31-0.438-2.69-0.438-2.69 0.562-5.69 3-2 3-2 6-2v-3c3.07-0.91 5.8-1.25 9-1 0.66 0.66 1.32 1.32 2 2 2.07 0.643 2.07 0.643 4 1-0.33-0.99-0.66-1.98-1-3 1.19-2.19 1.19-2.19 3-4h4c0.33-0.66 0.66-1.32 1-2 0.763-0.124 1.53-0.247 2.31-0.375 3.34-0.776 4.53-2.01 6.69-4.62 0.33-0.99 0.66-1.98 1-3h5c-0.186-0.577-0.371-1.15-0.562-1.75-0.478-2.46-0.195-3.89 0.562-6.25h7v-2c2.35-1.43 3.48-2.09 6.25-1.62 0.866 0.309 0.866 0.309 1.75 0.625 0.103-0.639 0.206-1.28 0.312-1.94 0.34-1.02 0.34-1.02 0.688-2.06 0.99-0.33 1.98-0.66 3-1-0.33-2.31-0.66-4.62-1-7 1.49-0.495 1.49-0.495 3-1v2h2c0.124-0.784 0.247-1.57 0.375-2.38 0.625-2.62 0.625-2.62 2.62-4.62v-2c9.38 0 9.38 0 13.7 2 0.808 0.371 1.62 0.742 2.45 1.12 0.615 0.289 1.23 0.577 1.86 0.875-0.186-1.09-0.371-2.19-0.562-3.31-0.438-3.69-0.438-3.69 0.562-6.69zm-112 119 1 2z" fill="#451C94"/>
<path transform="translate(505,465)" d="m0 0h2v3h3c1.35 2.71 1.07 5.01 1 8h2c-0.495-3.96-0.495-3.96-1-8 2.3 3.46 2.19 4.64 2.06 8.69-0.103 3.45-0.0333 6.48 0.547 9.9 0.796 5.87-0.45 11.6-1.42 17.4-0.179 1.13-0.357 2.26-0.541 3.42-0.789 4.9-1.63 9.74-2.78 14.6-0.814 3.51-1.02 6.7-0.863 10.3 0.222 5.23 0.222 5.23-0.973 8.02-1.2 3.19-1.41 5.89-1.59 9.29-0.0748 1.26-0.15 2.51-0.227 3.81-0.0696 1.31-0.139 2.61-0.211 3.96-0.421 7.83-0.913 15.1-3 22.7-0.199 2.2-0.349 4.41-0.438 6.62-0.321 4.89-0.996 8.13-3.56 12.4-0.808 1.93-1.53 3.88-2.23 5.86-0.536 1.49-1.1 2.97-1.7 4.45-0.439 1.15-0.439 1.15-0.887 2.32-0.275 0.694-0.549 1.39-0.832 2.1-0.492 3.15 0.631 5.26 1.64 8.27 0.341 2.97 0.413 5.95 0.5 8.94 0.211 15 0.211 15 4.5 29.1 0.125 3.25 0.125 3.25 0 6-1.67 0.402-1.67 0.402-3.38 0.812-3.84 0.846-3.84 0.846-5.62 4.19 0.282 4.33 1.16 7.68 4 11 4.6 1.22 4.6 1.22 9 0 0.338 0.915 0.675 1.83 1.02 2.77 0.446 1.19 0.892 2.38 1.35 3.6 0.441 1.18 0.882 2.37 1.34 3.59 1.08 3.08 1.08 3.08 3.29 5.04 0.658 1.6 1.25 3.23 1.81 4.88 3.77 10.7 7.88 21.7 14.2 31.1 0.125 2.69 0.125 2.69 0 5h-2c-0.33 1.65-0.66 3.3-1 5-1.32-0.45-2.63-0.91-3.94-1.38-0.731-0.255-1.46-0.51-2.21-0.773-1.85-0.852-1.85-0.852-2.85-2.85-2.32-0.407-4.66-0.744-7-1-0.495-4.95-0.495-4.95-1-10h-3c-0.66 0.99-1.32 1.98-2 3h-3c-1.67 0.311-3.34 0.641-5 1-0.66 2.97-1.32 5.94-2 9-5.6-3.46-7.17-8.2-9.5-14.1-0.786-1.91-1.57-3.81-2.36-5.72-0.556-1.36-0.556-1.36-1.12-2.75-1.19-2.88-2.46-5.71-3.77-8.53-2.13-4.62-4.1-9.31-6.04-14-1.2-3-1.2-3-2.84-6.07-2.1-4.88-1.77-9.93-1.68-15.2-0.00322-1-0.00645-2-0.00977-3.03 0.0549-7.39 0.0549-7.39 2.32-9.65 3.63-0.125 3.63-0.125 7 0-0.115-2.69-0.242-5.38-0.375-8.06-0.0309-0.752-0.0619-1.5-0.0938-2.28-0.253-4.86-1.06-9.02-2.53-13.7-0.375-2.69-0.375-2.69 0-5 0.619-0.598 1.24-1.2 1.88-1.81 2.92-3 3.78-6.04 4.12-10.2-0.613-1.69-1.27-3.36-2-5 0.875-2.19 0.875-2.19 2-4v-2c0.99-0.33 1.98-0.66 3-1-0.511-4.16-0.511-4.16-2.19-7.94-1.27-3.24 0.232-5.8 1.19-9.06-0.286-3.31-0.286-3.31-1-6h6c-0.186-1.26-0.371-2.52-0.562-3.81-0.445-3.01-0.436-4.19 0.562-7.19-0.406-2.3-1.02-4.5-1.62-6.75-0.404-2.43-0.135-3.94 0.625-6.25 0.495 0.495 0.495 0.495 1 1 0.33-1.65 0.66-3.3 1-5-0.66-0.413-1.32-0.825-2-1.25-0.66-0.577-1.32-1.15-2-1.75v-4h-4c-1.48-2.96-1.06-5.74-1-9 2.97-0.495 2.97-0.495 6-1v-2c-1.49-0.99-1.49-0.99-3-2 0.99-1.98 1.98-3.96 3-6h2c0.33-2.97 0.66-5.94 1-9 2.64 0.33 5.28 0.66 8 1-0.0116-0.739-0.0232-1.48-0.0352-2.24-0.0552-6.2 0.172-12.2 0.914-18.4 0.121-2.37-0.175-4.12-0.879-6.38 1.32-0.99 2.64-1.98 4-3h-2c1.66-4.73 1.66-4.73 3.62-6.31 2.34-2.87 1.55-6.09 1.38-9.69h2v-2h2c0.33-2.97 0.66-5.94 1-9zm-32 176 1 2zm-6 21v1h7v-1h-7zm24 36c-2.24 2.73-2.24 2.73-1.94 5.38 1.24 3.48 3.15 5.25 5.94 7.62h2c-0.0873-1.61-0.196-3.21-0.312-4.81-0.087-1.34-0.087-1.34-0.176-2.71-0.579-2.81-1.23-3.79-3.51-5.48h-2zm9 0c0.983 7.04 2.4 12.9 6 19 0.495 0.928 0.99 1.86 1.5 2.81 1.61 2.34 3.09 3.71 5.5 5.19h2c0.33 0.66 0.66 1.32 1 2-0.513-5.47-1.9-9.53-4.44-14.4-0.313-0.628-0.625-1.26-0.947-1.9-1.64-3.48-1.64-3.48-4.62-5.72-0.289-0.804-0.577-1.61-0.875-2.44-1.33-3.02-2.21-3.29-5.12-4.56zm-4 14c0.33 0.99 0.66 1.98 1 3h2v-3h-3z" fill="#461D95"/>
<path transform="translate(798,237)" d="m0 0c2.43 1.37 4.61 2.71 6.88 4.31 5.21 3.53 10.3 6.31 16.1 8.69 2.17 2.17 1.37 6.76 1.44 9.75 0.0458 0.812 0.0915 1.62 0.139 2.46 0.11 5.86 0.11 5.86-1.8 8.45-4.07 3.57-7.77 4.44-13 4.53-1.24 0.0251-1.24 0.0251-2.5 0.0507-1.33 0.0204-1.33 0.0204-2.68 0.0411-1.38 0.0276-1.38 0.0276-2.8 0.0558-2.95 0.0587-5.9 0.111-8.86 0.163-18-1.33-18-1.33-33.9 2.5-2.29 0.424-4.58 0.813-6.88 1.19-14.4 2.57-27.7 7.1-40.6 14-3.52 1.83-3.52 1.83-7.02 3.33-3.68 1.58-7.18 3.4-10.7 5.31-5.75 3.11-11.5 6.09-17.4 8.96-2.55 1.25-2.55 1.25-5.39 3.23 1.3-3.91 2.79-6.37 6-9h3c-0.66-0.66-1.32-1.32-2-2-0.66-0.66-1.32-1.32-2-2v-2c2.97-0.495 2.97-0.495 6-1 0.33 0.99 0.66 1.98 1 3 2.02 0.733 2.02 0.733 4 1-0.66-1.65-1.32-3.3-2-5 3-2 3-2 6-3 0.33 1.32 0.66 2.64 1 4 1.49-0.495 1.49-0.495 3-1-1.49-0.495-1.49-0.495-3-1-1-4.88-1-4.88-1-6-0.949-0.0825-1.9-0.165-2.88-0.25-3.12-0.75-3.12-0.75-4.56-2.56-0.562-2.19-0.562-2.19 0.438-6.19 4.46-0.495 4.46-0.495 9-1 0.33-0.99 0.66-1.98 1-3-1.07 0.206-2.14 0.413-3.25 0.625-3.63 0.363-4.83 0.359-7.75-1.62 0.33-0.66 0.66-1.32 1-2 1.99-0.181 4-0.268 6-0.312 6.32-0.389 11-1.69 16-5.69 0.534-0.715 1.07-1.43 1.62-2.17 0.456-0.605 0.913-1.21 1.38-1.83h2c0.249-0.592 0.498-1.18 0.754-1.79 1.43-2.52 2.87-3.79 5.18-5.52 0.69-0.532 1.38-1.06 2.09-1.61 0.651-0.354 1.3-0.709 1.97-1.07 0.99 0.33 1.98 0.66 3 1 0.495 6.93 0.495 6.93 1 14 0.66-0.66 1.32-1.32 2-2 16.8-11.2 35.4-18.9 54.2-25.8 3.11-1.14 5.97-2.29 8.86-3.94 3.86-1.64 5.86-1.17 9.94-0.25zm-109 38 4 1z" fill="#461D95"/>
<path transform="translate(1113,435)" d="m0 0c2 1 2 1 4 4 2.05 1.19 2.05 1.19 4 2v3l4 1c0.33 3.63 0.66 7.26 1 11 0.99-0.33 1.98-0.66 3-1v6c-0.66 0.33-1.32 0.66-2 1-0.108 7.09-0.0358 14 1 21 0.495 0.495 0.495 0.495 1 1 0.0406 1.67 0.0427 3.33 0 5-0.99 0.495-0.99 0.495-2 1v3c0.66 0.33 1.32 0.66 2 1-0.33 1.32-0.66 2.64-1 4 1.48-0.495 1.48-0.495 3-1 0.66 0.33 1.32 0.66 2 1 0.633 2.07 0.633 2.07 1.12 4.56 0.251 1.24 0.251 1.24 0.508 2.5 0.121 0.638 0.242 1.28 0.367 1.93h2c1.45 2.9 1.22 5.52 1.32 8.76 0.0208 0.663 0.0416 1.33 0.063 2.01 0.0654 2.12 0.124 4.24 0.183 6.36 0.0432 1.44 0.0868 2.87 0.131 4.31 0.107 3.52 0.208 7.04 0.307 10.6 1.65 0.33 3.3 0.66 5 1 0.495-1.98 0.495-1.98 1-4 1.32 0.66 2.64 1.32 4 2-0.283 2.25-0.577 4.5-0.875 6.75-0.162 1.25-0.325 2.51-0.492 3.8-0.633 3.45-0.633 3.45-1.66 5.39-1.53 3.26-1.44 6.7-1.59 10.2-0.0387 0.737-0.0773 1.47-0.117 2.23-0.185 3.29-0.185 3.29-0.258 6.58-0.33 0.99-0.66 1.98-1 3-0.145 1.41-0.246 2.82-0.316 4.23-0.0628 1.2-0.0628 1.2-0.127 2.43-0.0393 0.833-0.0786 1.67-0.119 2.53-0.0648 1.27-0.0648 1.27-0.131 2.56-0.106 2.08-0.207 4.17-0.307 6.25h-2c-0.167-4.68-0.328-9.36-0.482-14-0.0535-1.59-0.109-3.19-0.166-4.78-0.0817-2.29-0.157-4.57-0.231-6.86-0.027-0.717-0.0541-1.43-0.0819-2.17-0.0521-1.71-0.051-3.43-0.0392-5.14 0.33-0.33 0.66-0.66 1-1 0.391-1.51 0.74-3.03 1.06-4.56 0.177-0.826 0.353-1.65 0.535-2.5 0.199-0.957 0.199-0.957 0.402-1.93-0.99 0.66-1.98 1.32-3 2-3.06 0.25-3.06 0.25-6 0-2.44-2.44-2.15-3.12-2.38-6.44-1.17-6.64-5.78-9.84-10.6-14-3.65-3.19-6.33-6.58-8.98-10.6-0.615-0.903-0.615-0.903-1.24-1.82-0.934-1.38-1.85-2.78-2.76-4.18 0.495-0.99 0.495-0.99 1-2 0.557 0.474 1.11 0.949 1.69 1.44 2.51 1.7 4.36 2.06 7.31 2.56-0.0722-0.843-0.144-1.69-0.219-2.55-0.0928-1.1-0.186-2.19-0.281-3.32-0.0928-1.09-0.186-2.18-0.281-3.3-0.124-1.6-0.219-3.21-0.219-4.82h3v-8c0.99-0.495 0.99-0.495 2-1v8c1.95-1.95 1.45-5.51 1.62-8.19 0.0954-1.31 0.191-2.63 0.289-3.98 0.0778-3.47-0.333-6.43-0.914-9.83 0.33-0.99 0.66-1.98 1-3-0.389-2.14-0.389-2.14-1-4h2c-0.486-3.12-0.999-6-2-9h-4c-0.103-1.09-0.206-2.19-0.312-3.31-0.428-3.54-0.428-3.54-1.94-5.69-2.49-1.42-4.05-0.71-6.75 0-1-1-1-1-1.06-4.56 0.0206-1.13 0.0412-2.27 0.0625-3.44 1.32-0.33 2.64-0.66 4-1-0.206-1.05-0.412-2.1-0.625-3.19-0.375-3.81-0.0913-5.48 1.62-8.81zm32 102 1 2zm-3 22 1 2z" fill="#451C93"/>
<path transform="translate(663,603)" d="m0 0c3.86 1.29 4.07 2.51 5.88 6.06 1.87 3.61 3.79 6.98 6.12 10.3 2.04 3.27 2.04 3.27 1.75 6.12-6.92 9.89-6.92 9.89-11.8 11.5-0.291 0.625-0.583 1.25-0.883 1.89-1.5 2.82-3.13 3.45-5.99 4.79-1.3 0.625-1.3 0.625-2.62 1.26-4.65 1.95-8.45 2.15-13.5 2.05v-2h-3l-1 2c-14 1.16-24.8-1.42-35.8-10.7-2.38-2.24-4.42-4.6-6.25-7.31v-2c2.93-0.84 5.53-1.13 8.57-1.13 0.897-0.00315 1.79-0.0063 2.72-0.00955 1.44 0.00304 1.44 0.00304 2.91 0.00613 1.49-0.00144 1.49-0.00144 3-0.0029 2.09-6.8e-4 4.18 0.00116 6.27 0.00534 3.21 0.00537 6.43 3.92e-5 9.64-0.00635 2.03 6.6e-4 4.06 0.00194 6.09 0.00391 0.967-0.00202 1.93-0.00405 2.93-0.00613 1.33 0.00473 1.33 0.00473 2.69 0.00955 0.785 7.96e-4 1.57 0.00159 2.38 0.00241 1.8 0.127 1.8 0.127 2.8 1.13 0.605 4.24-0.0635 6.49-2.5 9.88-0.82 1.05-1.65 2.1-2.5 3.12 0.33 0.66 0.66 1.32 1 2 1.04-1.55 2.06-3.12 3.06-4.69 0.568-0.87 1.14-1.74 1.72-2.64 1.41-3.1 1.22-4.48 0.215-7.68h4c0.227-0.825 0.454-1.65 0.688-2.5 1.31-3.49 2.92-6.17 4.94-9.27 2.42-3.93 4.38-8.08 6.38-12.2z" fill="#451C94"/>
<path transform="translate(593,862)" d="m0 0 1 2c0.99 0.33 1.98 0.66 3 1 0.495 1.49 0.495 1.49 1 3h4c0.495 1.49 0.495 1.49 1 3-0.804 0.124-1.61 0.247-2.44 0.375-0.846 0.206-1.69 0.413-2.56 0.625-0.33 0.66-0.66 1.32-1 2h-2l1 6c4.79 1.63 8.06 2.21 13 1v4h2c0.33-0.66 0.66-1.32 1-2l1 2c0.784 0.309 1.57 0.619 2.38 0.938 2.68 1.09 3.74 1.94 5.62 4.06l4 4c0.33-0.66 0.66-1.32 1-2l2-1c1.06 2.37 1.06 2.37 2 5l-1 2c0.99-0.33 1.98-0.66 3-1v2c3.35-0.949 6.69-1.9 10-3 3.06-0.25 3.06-0.25 6 0 0.66 0.99 1.32 1.98 2 3v-2h2c0.33 0.99 0.66 1.98 1 3h2v-2c0.66 0.33 1.32 0.66 2 1l-1 2h2c0.495 1.98 0.495 1.98 1 4 5.44 0.495 5.44 0.495 11 1 0.495 2.48 0.495 2.48 1 5 4.62 1.04 4.62 1.04 9 0v2h5c0.33 1.32 0.66 2.64 1 4 2.48-0.495 2.48-0.495 5-1v5h10l2 6h3c0.66 1.32 1.32 2.64 2 4-3 1-3 1-4.8 0.363l-1.95-1.05c-0.696-0.37-1.39-0.74-2.11-1.12-3.06-1.7-6.11-3.42-9.14-5.19v-2c-1.14-0.236-2.28-0.472-3.45-0.715-4.88-1.22-8.99-3.41-13.4-5.85-1.48-0.816-2.97-1.63-4.46-2.44-0.646-0.359-1.29-0.718-1.96-1.09-4.33-2.22-8.61-2.28-13.4-2.63-2.4-0.281-2.4-0.281-3.4-1.28-1.52-0.16-3.04-0.277-4.56-0.375-12.1-1.13-21.6-7.79-31.1-15-3.88-2.73-7.21-2.88-11.8-3.14-1.28-0.078-2.55-0.156-3.87-0.236-2.02-0.119-4.05-0.236-6.07-0.348-1.96-0.11-3.92-0.231-5.88-0.353-1.17-0.067-2.34-0.134-3.54-0.203-3.09-0.383-5.35-1.15-8.18-2.39-1.89-0.433-1.89-0.433-3.81-0.875-6.35-1.54-11.9-4.1-16.2-9.12 1.56-0.688 1.56-0.688 4-1 2.35 0.958 4.68 1.96 7 3 1.99 0.398 3.99 0.755 6 1 0.33-1.65 0.66-3.3 1-5h6c0.33 1.65 0.66 3.3 1 5h1v-3h2v-3c0.99-0.33 1.98-0.66 3-1v-2h-2c0.33-1.32 0.66-2.64 1-4h4v2h2c0.66-1.98 1.32-3.96 2-6z" fill="#461D95"/>
<path transform="translate(798,237)" d="m0 0c2.18 1.19 4.01 2.5 6 4-0.33 1.32-0.66 2.64-1 4-4.02 0.841-7.02 1.05-11 0 0.523 2.76 1.11 5.33 2 8h-2c0.495 1.64 0.495 1.64 1 3.31 1 3.69 1 3.69 1 6.69-0.784 0.268-1.57 0.536-2.38 0.812-2.91 1.04-2.91 1.04-4.62 4.19-0.66-0.66-1.32-1.32-2-2h-3c-0.495 1.49-0.495 1.49-1 3-3.47 0.495-3.47 0.495-7 1-0.66-1.32-1.32-2.64-2-4v3c-6.62 1.12-6.62 1.12-10 0-0.495-2.48-0.495-2.48-1-5h3v-4h-4c-1.69-0.613-3.36-1.27-5-2-2.23 1.83-2.23 1.83-2.38 4.5-0.625 2.5-0.625 2.5-2.25 3.81-3.23 0.935-6.03 0.935-9.38 0.688-0.66-0.66-1.32-1.32-2-2-2.07-0.643-2.07-0.643-4-1v-3c14-8.23 29-14.2 44.2-19.8 3.11-1.14 5.97-2.29 8.86-3.94 3.84-1.64 5.93-1.32 9.94-0.25z" fill="#491E9E"/>
<path transform="translate(532,754)" d="m0 0c0.33 0.66 0.66 1.32 1 2 0.99-0.33 1.98-0.66 3-1 0.99 0.33 1.98 0.66 3 1v5c1.65 0.33 3.3 0.66 5 1v2h6v2c1.32-0.66 2.64-1.32 4-2 3.75 3.55 7.47 7.12 11.2 10.7 1.26 1.22 2.53 2.43 3.8 3.64 1.83 1.74 3.64 3.5 5.44 5.27 0.574 0.533 1.15 1.07 1.74 1.61 1.58 1.58 1.58 1.58 3.85 4.76-0.299 3.73-0.299 3.73-1 7 2.33 2.67 2.33 2.67 5 5 0.812 2.81 0.812 2.81 1 5-5.47 1.47-8.12 0.44-13-2l-1 2c-0.99-0.66-1.98-1.32-3-2v-3h-2l-1 2c-0.66-1.65-1.32-3.3-2-5-0.99 0.33-1.98 0.66-3 1-3-5.62-3-5.62-3-9-2.31-0.66-4.62-1.32-7-2v-3c-0.606-0.101-1.21-0.201-1.84-0.305-3.76-1.21-5.31-4.36-7.16-7.7-1.25-3.75-1.25-3.75-2-7-0.871-2.91-0.871-2.91-2.12-5.06-0.289-0.639-0.577-1.28-0.875-1.94 0.33-0.66 0.66-1.32 1-2-1.32 0.33-2.64 0.66-4 1v-2h-4c0.33-1.65 0.66-3.3 1-5h2v-2z" fill="#461D95"/>
<path transform="translate(629,551)" d="m0 0 2 2c-2.07 7.32-5.83 13.5-10.3 19.6-3.67 5.06-6.3 10.5-8.85 16.2-0.946 2.02-0.946 2.02-2.84 5.27-2.12 0.703-2.12 0.703-4 1-2.14-3.52-4.19-7.08-6.19-10.7-0.53-0.953-1.06-1.91-1.61-2.89-1.21-2.43-1.21-2.43-1.21-4.43h-2c-0.75-1.62-0.75-1.62-1-4 5.11-9.8 15.4-15.3 25-20v-1c3.73-0.878 7.17-1.26 11-1z" fill="#461D95"/>
<path transform="translate(1119,736)" d="m0 0c0.99 0.33 1.98 0.66 3 1-1.35 7.15-3.05 13.8-7 20-0.58 1.26-1.14 2.54-1.69 3.81-4.5 10.3-9.68 20.4-15.3 30.2-1.52-1.36-1.52-1.36-3-3 0.312-2.19 0.312-2.19 1-4-1.65-0.33-3.3-0.66-5-1v-5c-0.949 0.0412-1.9 0.0825-2.88 0.125-3.12-0.125-3.12-0.125-5.12-2.12l-2 1v-5c-0.99-0.33-1.98-0.66-3-1 0.562-1.94 0.562-1.94 2-4 3.62-0.75 3.62-0.75 7-1v-3c0.568 0.104 1.14 0.209 1.72 0.316 2.66 0.28 4.66 0.306 7.28-0.316 2.91-2.64 4.93-5.68 7-9 0.66-0.99 1.32-1.98 2-3h2c0.186-0.66 0.371-1.32 0.562-2 2.55-5.32 6.54-9.74 11.4-13z" fill="#451C94"/>
<path transform="translate(592,577)" d="m0 0c2.24 2.9 4.26 5.88 6.19 9 0.53 0.846 1.06 1.69 1.61 2.56 1.21 2.44 1.21 2.44 1.21 6.44h2c0.531 1.07 1.06 2.15 1.61 3.25 0.713 1.44 1.43 2.87 2.14 4.31 0.348 0.704 0.696 1.41 1.05 2.13 1.71 3.44 3.47 6.79 5.46 10.1 1.73 3.22 1.73 3.22 1.73 7.22-3.6 0.058-7.21 0.0936-10.8 0.125-1.02 0.0168-2.05 0.0335-3.1 0.0508-0.983 0.00645-1.97 0.0129-2.98 0.0195-0.906 0.0105-1.81 0.0209-2.75 0.0317-2.36-0.227-2.36-0.227-5.36-2.23-5.36-10.5-6.4-21.3-2.85-32.7 3.33-8.79 3.33-8.79 4.85-10.3z" fill="#461D95"/>
<path transform="translate(666 576)" d="m0 0c1.45-0.0309 1.45-0.0309 2.93-0.0625 1.39-0.00773 1.39-0.00773 2.81-0.0156 1.28-0.014 1.28-0.014 2.58-0.0283 2.78 0.444 3.57 1.11 5.24 3.36 3.16 6.99 3.46 14.1 3.38 21.7 0.0116 0.993 0.0232 1.99 0.0352 3.01-0.0233 5.85-0.529 10.2-3.41 15.3-0.99 0.495-0.99 0.495-2 1-3.85-3.38-5.93-7.15-8.25-11.6-0.364-0.681-0.727-1.36-1.1-2.06-2.65-5.04-2.65-5.04-2.65-7.31h-2c-1.3-2.54-2.59-5.08-3.88-7.62-0.365-0.713-0.73-1.43-1.11-2.16-2.02-4-3.73-7.9-5.02-12.2 3.76-1.88 8.3-1.23 12.4-1.25z" fill="#451C94"/>
<path transform="translate(634,551)" d="m0 0c12.1-1.11 19.3 0.154 29 8 3.3 3.15 6.16 6.43 9 10 1.31 1.35 2.64 2.69 4 4-7.58 0.0668-15.1-0.135-22.7-0.5-9.45-0.428-18.9-0.625-28.3-0.5 0.593-4.04 1.91-6.97 3.94-10.5 1.97-3.44 3.67-6.79 5.06-10.5zm31 20 4 1z" fill="#441C91"/>
<path transform="translate(604,822)" d="m0 0c5.75 3.62 5.75 3.62 8 7 2.33 0.368 4.66 0.702 7 1 0.33 0.66 0.66 1.32 1 2l-1 1c1.32 0.66 2.64 1.32 4 2l-2 1c0.639 0.619 1.28 1.24 1.94 1.88 2.06 2.12 2.06 2.12 3.06 4.12h2c0.33-0.66 0.66-1.32 1-2 0.144 0.742 0.289 1.49 0.438 2.25 0.464 2.27 0.981 4.51 1.56 6.75-1.11-0.0206-2.23-0.0412-3.38-0.0625-3.46-0.201-3.46-0.201-5.62 1.06-2.62-0.938-2.62-0.938-5-2-0.33 1.32-0.66 2.64-1 4-0.66-0.33-1.32-0.66-2-1v-5h-4c-0.33 0.66-0.66 1.32-1 2-0.371 0.639-0.742 1.28-1.12 1.94-1.2 2.19-1.2 2.19 0.125 5.06-3.27-0.564-4.83-1.5-7-4 1-2 1-2 4-3-0.681-1.07-1.36-2.14-2.06-3.25-3.33-6.61-1.82-13.6 0.125-20.5 0.464-1.11 0.464-1.11 0.938-2.25z" fill="#461D95"/>
<path transform="translate(907,301)" d="m0 0 2 1c0.495 1.49 0.495 1.49 1 3 2.54 0.508 5.08 1.02 7.62 1.5 2.38 0.5 2.38 0.5 5.38 1.5-0.33 1.65-0.66 3.3-1 5 0.969-0.186 1.94-0.371 2.94-0.562 1.52-0.217 1.52-0.217 3.06-0.438 1 1 1 1 1.06 3.44-0.0206 0.846-0.0412 1.69-0.0625 2.56v2c1.65 1.8 1.65 1.8 4 3 2.7-0.222 2.7-0.222 5-1 0.99 2.97 0.99 2.97 2 6 0.701 0.0825 1.4 0.165 2.12 0.25 2.88 0.75 2.88 0.75 5.62 2.62 3.91 2.56 7.8 3.82 12.2 5.12-0.33 1.32-0.66 2.64-1 4h2c0.33 0.99 0.66 1.98 1 3-5.37-1.27-9.13-4.07-13.5-7.25-3.06-2.16-6.2-3.97-9.48-5.75v-2c-0.908-0.268-1.82-0.536-2.75-0.812-3.04-1.11-4.77-2.19-7.25-4.19-3.46-2.14-6.99-4.12-10.6-6.06-0.929-0.507-1.86-1.01-2.82-1.54-0.865-0.463-1.73-0.926-2.62-1.4-0.601-0.369-1.2-0.737-1.82-1.12-3.38-1.37-6.9-1.59-10.5-1.95-1.48-0.157-2.95-0.314-4.43-0.473-0.717-0.0766-1.43-0.153-2.17-0.232-8.64-0.962-16.5-2.11-23.1-8.23 6.77-0.2 12.5-0.086 19 2 2.28 0.33 4.55 0.562 6.84 0.781 2.74 0.278 5.44 0.732 8.16 1.22 0.66-1.65 1.32-3.3 2-5z" fill="#461D95"/>
<path transform="translate(1020,379)" d="m0 0c2.97 0.33 5.94 0.66 9 1-0.33 0.99-0.66 1.98-1 3 2.56 1.28 4.93 1.55 7.75 2 1.03 0.165 2.05 0.33 3.11 0.5 1.04 0.165 2.07 0.33 3.14 0.5 2 0.332 4 0.665 6 1v2h2c0.33-0.66 0.66-1.32 1-2h3c0.99 1.98 1.98 3.96 3 6v-3h2c0.495 1.49 0.495 1.49 1 3 0.66 0.66 1.32 1.32 2 2-2.18 0.848-4.37 1.68-6.56 2.5-1.22 0.464-2.44 0.928-3.69 1.41-4.62 1.35-8.56 2.1-13 0.0273-0.664-0.494-1.33-0.987-2.01-1.5-0.755-0.545-1.51-1.09-2.29-1.65-0.791-0.589-1.58-1.18-2.4-1.79-1.73-1.21-3.46-2.42-5.19-3.62-0.828-0.584-1.66-1.17-2.51-1.77-1.93-1.35-3.89-2.64-5.87-3.92-2.44-1.69-2.44-1.69-3.44-3.69h5v-2z" fill="#461D95"/>
<path transform="translate(900 260)" d="m0 0c0.898-0.00315 1.8-0.0063 2.72-0.00955 0.969 0.00202 1.94 0.00405 2.94 0.00613 1-9.57e-4 2-0.00191 3.03-0.0029 2.12-6.81e-4 4.24 0.00117 6.35 0.00534 3.23 0.00533 6.46 6.34e-5 9.68-0.00635 2.06 6.61e-4 4.12 0.00194 6.18 0.00391 0.961-0.00202 1.92-0.00405 2.91-0.00613 5.02 0.0174 9.78 0.281 14.7 1.14 0.846 0.144 1.69 0.289 2.56 0.438 2.89 0.666 5.64 1.59 8.44 2.56v2c-1.2-0.144-2.39-0.289-3.62-0.438-18.7-2.33-18.7-2.33-37.4-0.562-0.33 0.99-0.66 1.98-1 3-0.33-0.66-0.66-1.32-1-2-0.928 0.0412-1.86 0.0825-2.81 0.125-3.19-0.125-3.19-0.125-6.19-2.12-3.65-0.378-7.28-0.506-10.9-0.656-1.01-0.113-2.02-0.227-3.05-0.344-0.33-0.66-0.66-1.32-1-2 2.82-0.939 4.54-1.13 7.45-1.13z" fill="#451C94"/>
<path transform="translate(592,577)" d="m0 0c2.24 2.9 4.26 5.88 6.19 9 0.53 0.846 1.06 1.69 1.61 2.56 1.21 2.44 1.21 2.44 1.21 6.44h2c0.99 2.64 1.98 5.28 3 8h-2c0.33 1.32 0.66 2.64 1 4h-5c-0.66-1.98-1.32-3.96-2-6h-2c-0.33-1.65-0.66-3.3-1-5-0.66 0.99-1.32 1.98-2 3-0.66-1.98-1.32-3.96-2-6h-2v-4l-2 2c0.964-5.21 1.88-9.6 5-14z" fill="#481E9C"/>
<path transform="translate(1058,352)" d="m0 0c3.66 0.207 6.24 0.488 9.31 2.56 2.31 3.34 2.78 6.48 3.69 10.4 0.66 0.33 1.32 0.66 2 1-2.91 1.26-4.8 2-8 2 0.33-0.66 0.66-1.32 1-2h-4v-2c-1.65 0.33-3.3 0.66-5 1-1.54-4.1-0.69-7.79 0-12 0.33-0.33 0.66-0.66 1-1z" fill="#461D95"/>
<path transform="translate(503,553)" d="m0 0c0.99 0.33 1.98 0.66 3 1-0.115 2.83-0.242 5.67-0.375 8.5-0.0464 1.19-0.0464 1.19-0.0938 2.4-0.191 3.88-0.534 7.5-1.53 11.3-0.959 3.69-1.39 7.05-1.62 10.8-0.0748 1.13-0.15 2.27-0.227 3.44-0.049 0.846-0.098 1.69-0.148 2.56-1.65-0.66-3.3-1.32-5-2 0.912-6.64 0.912-6.64 1.59-9.41 0.46-2.93 0.123-5.02-0.531-7.91-0.195-0.883-0.389-1.77-0.59-2.68-0.156-0.664-0.312-1.33-0.473-2.01 0.66-0.33 1.32-0.66 2-1 3.05-4.89 3.64-9.39 4-15z" fill="#491E9E"/>
<path transform="translate(510,503)" d="m0 0c0.66 0.33 1.32 0.66 2 1-1.77 21.6-1.77 21.6-5 31-0.66-0.33-1.32-0.66-2-1-0.379-1.82-0.379-1.82-0.562-4.12-0.0735-0.811-0.147-1.62-0.223-2.46-0.106-1.2-0.106-1.2-0.215-2.42-0.489-3.73-0.984-7.37-2-11 1.65-0.33 3.3-0.66 5-1-0.0619-0.722-0.124-1.44-0.188-2.19 0.223-3.34 1.32-5.08 3.19-7.81z" fill="#491E9E"/>
<path transform="translate(723,893)" d="m0 0c13.4-0.595 13.4-0.595 19 3 0.938 2.69 0.938 2.69 1 5-4.21 1.82-6.6 2.37-11.1 1.19-1.42-0.588-1.42-0.588-2.88-1.19-0.33-0.99-0.66-1.98-1-3-1.66-1.01-3.33-2.01-5-3v-2z" fill="#461D95"/>
<path transform="translate(1073,436)" d="m0 0c0.447 0.398 0.895 0.797 1.36 1.21 4.27 3.74 8.19 6.98 13.6 8.79v-2c1.32 0.66 2.64 1.32 4 2h-3c0.33 2.31 0.66 4.62 1 7 0.99 0.33 1.98 0.66 3 1-0.33 1.32-0.66 2.64-1 4-0.681-0.557-1.36-1.11-2.06-1.69-2.93-2.38-2.93-2.38-6.25-4.44-4.75-3.35-8.67-7.92-11.7-12.9 0.33-0.99 0.66-1.98 1-3z" fill="#461D95"/>
<path transform="translate(901,566)" d="m0 0c-0.937 2.09-1.74 3.74-3.39 5.35-7.28 7.45-11.4 18.5-12.6 28.6-1.06 2.44-1.06 2.44-2 4h-4c12.3-38 12.3-38 22-38z" fill="#000002"/>
<path transform="translate(1036,316)" d="m0 0c3.16 1.37 3.99 1.99 6 5 0.33 0.99 0.66 1.98 1 3h2v2c0.66 0.33 1.32 0.66 2 1-0.165 0.784-0.33 1.57-0.5 2.38-0.562 2.51-0.562 2.51-0.5 4.62-0.99-0.33-1.98-0.66-3-1-0.33-0.66-0.66-1.32-1-2-0.99 0.495-0.99 0.495-2 1-0.289-0.763-0.578-1.53-0.875-2.31-1.09-2.84-1.09-2.84-3.12-5.69v-4c-0.66-0.66-1.32-1.32-2-2h2v-2z" fill="#461D95"/>
<path transform="translate(966,575)" d="m0 0c1.6 3.2 0.0317 5.72-1 9 0.66 0.33 1.32 0.66 2 1v2h-7c-0.121 0.557-0.242 1.11-0.367 1.69-1.13 5.13-2.34 10.2-3.63 15.3h-2v-6c-0.66-0.33-1.32-0.66-2-1 0.598-0.846 1.2-1.69 1.81-2.56 1.54-2.3 2.75-4.56 3.81-7.12 1.38-3.31 1.38-3.31 3.38-6.31 0.99-0.33 1.98-0.66 3-1 1.22-2.5 1.22-2.5 2-5z" fill="#0A0419"/>
<path transform="translate(591,366)" d="m0 0c0.99 0.66 1.98 1.32 3 2-2.64 2.67-5.29 5.34-7.94 8-0.755 0.763-1.51 1.53-2.29 2.31-0.719 0.722-1.44 1.44-2.18 2.19-0.998 1.01-0.998 1.01-2.02 2.03-1.58 1.47-1.58 1.47-2.58 1.47v-7l4-2-2-1c0.784-0.268 1.57-0.536 2.38-0.812 2.91-1.04 2.91-1.04 4.62-4.19h3v-2l2-1z" fill="#461D95"/>
<path transform="translate(653,324)" d="m0 0c-2.96 1.81-5.95 3.53-9 5.19-5.14 2.83-10.1 5.93-15.1 9.04-2.28 1.38-4.52 2.64-6.92 3.77v-3h2c0.33-1.32 0.66-2.64 1-4 0.908-0.124 1.82-0.248 2.75-0.375 3.69-0.71 6.13-1.46 8.75-4.19 1.78-1.71 3.14-1.89 5.5-2.44 0.33-0.66 0.66-1.32 1-2 6.4-3.2 6.4-3.2 10-2z" fill="#461D95"/>
<path transform="translate(1142,561)" d="m0 0c2.05 3.08 2.24 3.67 2.12 7.12-0.0887 2.44-0.0887 2.44-0.125 4.88-0.33 0.99-0.66 1.98-1 3-0.145 1.41-0.246 2.82-0.316 4.23-0.0419 0.802-0.0838 1.6-0.127 2.43-0.0393 0.833-0.0786 1.67-0.119 2.53-0.0432 0.845-0.0864 1.69-0.131 2.56-0.106 2.08-0.207 4.17-0.307 6.25h-2v-25h1c0.33-2.64 0.66-5.28 1-8z" fill="#070312"/>
<path transform="translate(853,571)" d="m0 0c0.66 0.33 1.32 0.66 2 1-0.33 1.32-0.66 2.64-1 4 3.97 2.42 7.76 4.34 12.1 5.94 4.38 1.71 7.1 3.23 9.88 7.06-0.0625 2.25-0.0625 2.25-1 4-0.66 0.33-1.32 0.66-2 1v-5c-7.96-4.09-7.96-4.09-16.1-7.75-2.88-1.25-2.88-1.25-4.88-3.25-0.188-3.06-0.188-3.06 0-6l1-1z" fill="#000002"/>
<path transform="translate(676,874)" d="m0 0c0.309 0.639 0.619 1.28 0.938 1.94 1.54 2.98 3.08 3.62 6.06 5.06-4.03 2.43-6.57 2.01-11 0.914-2-0.914-2-0.914-3.56-4.04-0.144-0.949-0.289-1.9-0.438-2.88 2.89-0.826 4.89-1 8-1z" fill="#461D95"/>
<path transform="translate(951,576)" d="m0 0h2c-1.25 3.46-2.68 6.15-5 9 1.32 0.66 2.64 1.32 4 2-1.36-0.0619-1.36-0.0619-2.75-0.125-3.38 0.769-3.38 0.769-4.54 3.42-0.999 2.55-1.9 5.09-2.71 7.71-0.66-0.33-1.32-0.66-2-1 1.06-7.45 2.4-11.8 8-17 0.557-0.763 1.11-1.53 1.69-2.31 0.65-0.835 0.65-0.835 1.31-1.69z" fill="#000002"/>
<path transform="translate(706,573)" d="m0 0c0.252 0.623 0.504 1.25 0.764 1.89 1.47 2.5 2.33 2.91 5.01 3.89 1.11 0.427 1.11 0.427 2.25 0.863 1.16 0.423 1.16 0.423 2.35 0.855 9.27 3.4 9.27 3.4 12.6 7.5-0.33 0.66-0.66 1.32-1 2-0.656-0.596-1.31-1.19-1.99-1.8-3.58-2.61-7.04-3.9-11.2-5.32-7.56-2.63-7.56-2.63-9.81-4.88 0.375-2.62 0.375-2.62 1-5z" fill="#000002"/>
<path transform="translate(516,453)" d="m0 0c0.99 0.33 1.98 0.66 3 1 1 3 1 3 0.0625 5.19-0.351 0.598-0.701 1.2-1.06 1.81h-2c-0.33 0.66-0.66 1.32-1 2h-2c-0.33-0.66-0.66-1.32-1-2h-3c0.33-1.32 0.66-2.64 1-4h4v-3l2-1z" fill="#461D95"/>
<path transform="translate(837,570)" d="m0 0c0 3.8-1.25 5.34-3.25 8.56-3.89 6.5-7.03 13-8.75 20.4-0.99-0.33-1.98-0.66-3-1 1.54-5.22 3.82-9.79 6.38-14.6 0.387-0.742 0.773-1.48 1.17-2.25 2.16-4.07 4.41-7.69 7.45-11.2z" fill="#000002"/>
<path transform="translate(812,589)" d="m0 0c1.18 3.55 0.695 4.7-0.438 8.19-0.287 0.901-0.575 1.8-0.871 2.73-0.228 0.687-0.456 1.37-0.691 2.08h2c-0.33 0.99-0.66 1.98-1 3-0.99-0.33-1.98-0.66-3-1-1.69-3.56-1.69-3.56-3-7 2.31-2.64 4.62-5.28 7-8z" fill="#010004"/>
<path transform="translate(968,616)" d="m0 0c0.66 0.33 1.32 0.66 2 1v17h-4c-0.054-2.44-0.0937-4.87-0.125-7.31-0.0168-0.69-0.0335-1.38-0.0508-2.09-0.0364-3.77 0.032-5.38 2.18-8.6zm0 3c-0.33 3.96-0.66 7.92-1 12h2v-12h-1z" fill="#0E0621"/>
<path transform="translate(918,907)" d="m0 0c1.18 0.99 1.18 0.99 2.38 2 2.34 2.2 2.34 2.2 4.62 2 0.33 0.99 0.66 1.98 1 3h-2c0.33 1.98 0.66 3.96 1 6h-2v-3h-4c-0.33-0.99-0.66-1.98-1-3-0.66-0.66-1.32-1.32-2-2h2v-5z" fill="#461D95"/>
<path transform="translate(839,596)" d="m0 0c0.553 2.08 1 3.84 1 6 7.1 3.26 14.6 1.56 22 0-4.66 3.7-8.09 4.18-14 4.25-1.24 0.0258-2.48 0.0516-3.75 0.0781-3.25-0.328-3.25-0.328-5.17-1.65-1.64-2.55-1.33-4.73-1.08-7.68l1-1z" fill="#000002"/>
<path transform="translate(587,808)" d="m0 0c2.38 0.188 2.38 0.188 5 1 1.38 2.44 1.38 2.44 2 5-0.33 0.66-0.66 1.32-1 2h-6v-2h-3c0.33-0.66 0.66-1.32 1-2 0.66 0.33 1.32 0.66 2 1v-5z" fill="#461D95"/>
<path transform="translate(855,272)" d="m0 0c0.66 0.99 1.32 1.98 2 3-0.812 2.81-0.812 2.81-2 6-0.369 1.99-0.713 3.99-1 6h-2c-1.56-9.69-1.56-9.69 1-14l2-1z" fill="#461D96"/>
<path transform="translate(977,587)" d="m0 0c0.66 0.33 1.32 0.66 2 1-0.742 0.619-1.49 1.24-2.25 1.88-3.69 3.62-5.09 8.34-6.75 13.1h-2c-0.417-3.4-0.644-5.98 1.23-8.95 2.43-2.85 4.63-4.96 7.77-7.05z" fill="#000002"/>
<path transform="translate(695,593)" d="m0 0c1 2 1 2 0.438 3.88-0.619 2.13-0.619 2.13 0.215 4.18 1.21 2.16 1.21 2.16 3.73 2.77 0.905 0.139 1.81 0.278 2.74 0.422 0.91 0.15 1.82 0.299 2.76 0.453 0.699 0.098 1.4 0.196 2.12 0.297v1c-2.15 0.0269-4.29 0.0463-6.44 0.0625-1.19 0.0116-2.39 0.0232-3.62 0.0352-2.94-0.0977-2.94-0.0977-3.94-1.1-0.412-8.38-0.412-8.38 2-12z" fill="#000002"/>
<path transform="translate(728,882)" d="m0 0c2.13 0.114 4.25 0.241 6.38 0.375 1.78 0.104 1.78 0.104 3.59 0.211 3.04 0.414 3.04 0.414 5.04 2.41-1.65 1.65-3.55 1.17-5.81 1.19-0.873 0.0142-1.75 0.0284-2.64 0.043-2.65-0.24-4.27-0.889-6.54-2.23v-2z" fill="#421B8E"/>
<path transform="translate(999,580)" d="m0 0c0.66 0.33 1.32 0.66 2 1-0.66 1.32-1.32 2.64-2 4h9c0.33 0.66 0.66 1.32 1 2-2.48 1.49-2.48 1.49-5 3-0.33-0.66-0.66-1.32-1-2-2.31-0.731-4.65-1.4-7-2 0.573-2.87 0.861-3.86 3-6z" fill="#000002"/>
<path transform="translate(791,929)" d="m0 0c1.56 1.69 1.56 1.69 3 4-0.312 2.75-0.312 2.75-1 5h-6c-0.812-1.69-0.812-1.69-1-4 2.44-2.75 2.44-2.75 5-5z" fill="#491E9E"/>
<path transform="translate(808,618)" d="m0 0h1v16c-2-1-2-1-3.19-3.25-1.4-4.75 0.296-8.34 2.19-12.8z" fill="#000002"/>
<path transform="translate(930,585)" d="m0 0c0.613 1.83 0.613 1.83 1 4-1.32 2.01-2.66 4.01-4 6-0.877 2.65-1.43 5.25-2 8-1.46-2.33-2.05-3.57-1.75-6.34 0.837-2.97 2.05-4.95 3.81-7.47 0.548-0.79 1.1-1.58 1.66-2.39 0.632-0.888 0.632-0.888 1.28-1.79z" fill="#000002"/>
<path transform="translate(942,261)" d="m0 0c6.64-0.13 11.8 0.821 18 3v2c-6.44-0.511-12-1.73-18-4v-1z" fill="#471D98"/>
<path transform="translate(667,852)" d="m0 0c-0.0625 1.75-0.0625 1.75-1 4-2.24 1.6-4.54 2.75-7 4v-5c-0.66-0.33-1.32-0.66-2-1 6.62-3.12 6.62-3.12 10-2z" fill="#3C1981"/>
<path transform="translate(877,616)" d="m0 0c2 1 2 1 3.25 3.88 0.247 1.03 0.495 2.06 0.75 3.12-0.99 1.49-0.99 1.49-2 3h2c-0.33 1.32-0.66 2.64-1 4-0.99-0.33-1.98-0.66-3-1v-13z" fill="#000002"/>
<path transform="translate(957,590)" d="m0 0c0.66 0.33 1.32 0.66 2 1-0.99 4.29-1.98 8.58-3 13h-2v-6c-0.66-0.33-1.32-0.66-2-1 1.65-2.31 3.3-4.62 5-7z" fill="#000002"/>
<path transform="translate(1099,491)" d="m0 0h2c0.66 4.95 1.32 9.9 2 15h-2c-2.66-4.55-3.4-7.74-3-13 0.33-0.66 0.66-1.32 1-2z" fill="#461D96"/>
<path transform="translate(582,361)" d="m0 0h6c-0.712 1.05-0.712 1.05-1.44 2.12-1.65 3.04-2.17 5.47-2.56 8.88-0.66-0.33-1.32-0.66-2-1h-2c0.458-3.47 0.891-6.67 2-10z" fill="#461D95"/>
<path transform="translate(884,593)" d="m0 0c1.19 1.56 1.19 1.56 2 4-1.38 3.75-1.38 3.75-3 7h-4c1.23-4.05 2.7-7.44 5-11z" fill="#030109"/>
<path transform="translate(783,585)" d="m0 0c1.72 4.08 0.0728 7.37-1.44 11.2-0.243 0.65-0.486 1.3-0.736 1.97-0.599 1.6-1.21 3.19-1.83 4.78h-2c0.275-6.18 1.15-9.95 5-15 0.33-0.99 0.66-1.98 1-3z" fill="#010005"/>
<path transform="translate(710,618)" d="m0 0h4l-3 6c0.99 0.33 1.98 0.66 3 1-0.66 2.97-1.32 5.94-2 9h-2v-16z" fill="#000002"/>
<path transform="translate(794,618)" d="m0 0h1v16c-2-1-2-1-3.31-4.62-1.11-4.69 0.0599-7.22 2.31-11.4z" fill="#000002"/>
<path transform="translate(725 566)" d="m0 0c0.688 0.0135 1.38 0.0271 2.09 0.041 1.68 0.035 3.36 0.0888 5.04 0.146 0.66 1.32 1.32 2.64 2 4-0.804-0.33-1.61-0.66-2.44-1-6.3-1.77-11.6-1.65-17.6 1-0.99-0.33-1.98-0.66-3-1 4.71-2.79 8.51-3.39 13.9-3.19z" fill="#000002"/>
<path transform="translate(446,561)" d="m0 0h2v12c-0.99-0.33-1.98-0.66-3-1-1.03-4.41-1.04-6.93 1-11z" fill="#461D96"/>
<path transform="translate(899,585)" d="m0 0c0.66 0.33 1.32 0.66 2 1l-6 18-2-2c1.98-5.61 3.96-11.2 6-17z" fill="#000002"/>
<path transform="translate(867 566)" d="m0 0c1.48 0.0133 2.95 0.0372 4.43 0.0703 0.754 0.00902 1.51 0.018 2.29 0.0273 1.86 0.0236 3.73 0.0595 5.59 0.0977v4c-0.928-0.33-1.86-0.66-2.81-1-5-1.46-10-1.17-15.2-1 2-2 2-2 5.7-2.2z" fill="#000002"/>
<path transform="translate(1068,423)" d="m0 0c3 1 3 1 4.19 2.62 1.09 3.18 0.941 6.04 0.812 9.38-2.3-1.78-3.8-3.16-4.49-6.05-0.235-1.98-0.379-3.97-0.512-5.95z" fill="#461D95"/>
<path transform="translate(706,622)" d="m0 0c0.33 3.63 0.66 7.26 1 11h-2c-2.54-3.42-3.36-5.76-3-10 2-1 2-1 4-1zm-2 1v6h1v-6h-1z" fill="#0B0419"/>
<path transform="translate(1e3 593)" d="m0 0c1.59 3.19-0.00159 5.71-1 9v2c0.66 0.33 1.32 0.66 2 1h-4c-1.42-2.84-1.31-4.85-1-8 2-2.38 2-2.38 4-4z" fill="#000002"/>
<path transform="translate(915,587)" d="m0 0h2c-0.645 1.34-1.32 2.67-2 4-0.28 0.579-0.559 1.16-0.848 1.75-0.478 0.926-0.478 0.926-0.965 1.87-0.295 0.59-0.59 1.18-0.895 1.79-1.76 2.16-3.69 2.72-6.29 3.59 1.12-1.79 2.25-3.58 3.38-5.38 0.626-0.998 1.25-2 1.9-3.02 1.73-2.6 1.73-2.6 3.73-4.6z" fill="#000002"/>
<path transform="translate(1098,414)" d="m0 0c2.38-0.125 2.38-0.125 5 0 2 2 2 2 2.12 5.12-0.0412 0.949-0.0825 1.9-0.125 2.88h-3c-0.33-2.31-0.66-4.62-1-7-0.99 0.33-1.98 0.66-3 1v-2z" fill="#461D95"/>
<path transform="translate(596,354)" d="m0 0c1.94 0.75 1.94 0.75 4 2 0.75 2.12 0.75 2.12 1 4-4.52-0.754-7.72-1.72-11-5 2.97 0.495 2.97 0.495 6 1v-2z" fill="#461D95"/>
<path transform="translate(933,930)" d="m0 0h5c0.33 0.99 0.66 1.98 1 3l-2 2c-3.12-0.375-3.12-0.375-6-1v-2h2v-2z" fill="#491E9E"/>
<path transform="translate(802,618)" d="m0 0c0.33 0.99 0.66 1.98 1 3-0.33 0.66-0.66 1.32-1 2-0.226 1.7-0.409 3.41-0.562 5.12-0.126 1.37-0.126 1.37-0.254 2.76-0.0606 0.699-0.121 1.4-0.184 2.12h-2c-0.0825-4.79-0.142-9.32 1-14 0.66-0.33 1.32-0.66 2-1z" fill="#020107"/>
<path transform="translate(765,587)" d="m0 0c0.66 0.33 1.32 0.66 2 1-0.459 0.436-0.918 0.871-1.39 1.32-3.77 3.66-6.87 7.19-9.61 11.7-0.809-1.67-0.809-1.67-1-4 2.09-2.58 2.09-2.58 4.94-5.25 0.937-0.892 1.87-1.78 2.84-2.7 0.733-0.675 1.47-1.35 2.22-2.05z" fill="#000002"/>
<path transform="translate(689,289)" d="m0 0c0.66 0.66 1.32 1.32 2 2h-2c0.348 1.98 0.348 1.98 1 4 0.66 0.33 1.32 0.66 2 1v3h-3c-0.33-0.99-0.66-1.98-1-3 0.33-0.66 0.66-1.32 1-2-1.32-0.66-2.64-1.32-4-2 1-2 1-2 4-3z" fill="#4A1F9F"/>
<path transform="translate(932,277)" d="m0 0c2 1.31 2 1.31 4 3v3c-1.65 0.33-3.3 0.66-5 1-0.33-1.98-0.66-3.96-1-6l2-1z" fill="#461D95"/>
<path transform="translate(761,886)" d="m0 0c6.75-0.125 6.75-0.125 9 1v2h-10c0.33-0.99 0.66-1.98 1-3z" fill="#461D95"/>
<path transform="translate(739,587)" d="m0 0c0.66 0.33 1.32 0.66 2 1-0.41 0.675-0.82 1.35-1.24 2.05-0.539 0.892-1.08 1.78-1.63 2.7-0.534 0.882-1.07 1.76-1.62 2.67-1.26 2.16-2.42 4.32-3.51 6.58-0.507-5.33 0.813-7.78 4-12 0.66-0.99 1.32-1.98 2-3z" fill="#000002"/>
<path transform="translate(927,618)" d="m0 0h2c-0.33 5.28-0.66 10.6-1 16h-1c-0.914-5.69-0.914-10.3 0-16z" fill="#000002"/>
<path transform="translate(979,616)" d="m0 0h2v12h-2v-12z" fill="#000002"/>
<path transform="translate(822,619)" d="m0 0h1v13h-2c-0.0272-1.42-0.0465-2.83-0.0625-4.25-0.0116-0.789-0.0232-1.58-0.0352-2.39 0.0938-2.27 0.465-4.19 1.1-6.36z" fill="#000002"/>
<path transform="translate(985,617)" d="m0 0 2 1c0.054 1.46 0.0928 2.92 0.125 4.38 0.0232 0.812 0.0464 1.62 0.0703 2.46-0.195 2.16-0.195 2.16-2.2 4.16v-12z" fill="#000002"/>
<path transform="translate(767,615)" d="m0 0c1.23 3.68 0.908 6.91 0.562 10.8-0.102 1.17-0.204 2.34-0.309 3.55-0.0838 0.892-0.168 1.78-0.254 2.7h-1c-0.0268-2.65-0.0468-5.29-0.0625-7.94-0.00838-0.755-0.0168-1.51-0.0254-2.29-0.00863-1.93 0.0356-3.85 0.0879-5.78l1-1z" fill="#000002"/>
<path transform="translate(749,591)" d="m0 0c1.6 3.2 0.0317 5.72-1 9-1.32 0.33-2.64 0.66-4 1 1.33-3.59 2.96-6.75 5-10z" fill="#000002"/>
<path transform="translate(974,618)" d="m0 0h1c0.33 4.95 0.66 9.9 1 15h-2c-0.849-5.38-1-9.65 0-15z" fill="#000002"/>
<path transform="translate(993,624)" d="m0 0h2v10c-0.66-0.33-1.32-0.66-2-1v-9z" fill="#000002"/>
<path transform="translate(1152,530)" d="m0 0c0.33 0.99 0.66 1.98 1 3-1.44 2.69-1.44 2.69-3 5-0.66-0.33-1.32-0.66-2-1 0.564-3.27 1.5-4.83 4-7z" fill="#000002"/>
<path transform="translate(940,598)" d="m0 0c2 3 2 3 2 6h-4v-5c0.66-0.33 1.32-0.66 2-1z" fill="#070312"/>
<path transform="translate(984 585)" d="m0 0c0.784 0.0412 1.57 0.0825 2.38 0.125 0.33 1.98 0.66 3.96 1 6-0.392-0.474-0.784-0.949-1.19-1.44-2.22-1.91-3.95-2.18-6.81-2.56 2-2 2-2 4.62-2.12z" fill="#000002"/>
<path transform="translate(863,616)" d="m0 0h1v10h-3v-2h2v-8z" fill="#000002"/>
<path transform="translate(999,619)" d="m0 0h1v14h-1v-14z" fill="#000002"/>
<path transform="translate(717,616)" d="m0 0 4 2c-0.33 2.64-0.66 5.28-1 8h-1c-0.66-3.3-1.32-6.6-2-10z" fill="#05020C"/>
<path transform="translate(1009,618)" d="m0 0h2c0.33 1.32 0.66 2.64 1 4-1.32 0.99-2.64 1.98-4 3v-3h2c-0.33-1.32-0.66-2.64-1-4z" fill="#000002"/>
<path transform="translate(872,616)" d="m0 0h1v7h-2c-0.0425-2-0.0408-4 0-6l1-1z" fill="#000002"/>
<path transform="translate(794,594)" d="m0 0c0 3 0 3-2 5.19-0.66 0.598-1.32 1.2-2 1.81 1.07-2.92 1.78-4.78 4-7z" fill="#000002"/>
<path transform="translate(941,629)" d="m0 0c0.66 0.33 1.32 0.66 2 1-0.33 1.32-0.66 2.64-1 4h-2c0.33-1.65 0.66-3.3 1-5z" fill="#000002"/>
<path transform="translate(869,628)" d="m0 0h2c-0.33 1.98-0.66 3.96-1 6-0.66-0.66-1.32-1.32-2-2 0.375-2.12 0.375-2.12 1-4z" fill="#000002"/>
<path transform="translate(916,620)" d="m0 0h1v9c-0.66-0.33-1.32-0.66-2-1 0.33-2.64 0.66-5.28 1-8z" fill="#000002"/>
<path transform="translate(731,627)" d="m0 0h1c-0.33 2.31-0.66 4.62-1 7h-1c0.33-2.31 0.66-4.62 1-7z" fill="#000002"/>
<path transform="translate(503,580)" d="m0 0h1v10h-1v-10z" fill="#000002"/>
<path transform="translate(886,963)" d="m0 0h9v1h-9v-1z" fill="#000002"/>
<path transform="translate(963,599)" d="m0 0v3c-1.98 0.99-1.98 0.99-4 2 1.32-1.65 2.64-3.3 4-5z" fill="#000002"/>
<path transform="translate(949,599)" d="m0 0c0.66 0.33 1.32 0.66 2 1-1.65 1.32-3.3 2.64-5 4 1.88-3.88 1.88-3.88 3-5z" fill="#000002"/>
<path transform="translate(812,585)" d="m0 0c-2.35 1.43-3.48 2.09-6.25 1.62-0.577-0.206-1.15-0.413-1.75-0.625 2.93-0.976 4.96-1.08 8-1z" fill="#000002"/>
<path transform="translate(772 585)" d="m0 0c0.598 0.206 1.2 0.413 1.81 0.625-2.31 0.33-4.62 0.66-7 1 3-2 3-2 5.19-1.62z" fill="#070312"/>
<path transform="translate(660,575)" d="m0 0h9v1h-9v-1z" fill="#461D95"/>
<path transform="translate(641,572)" d="m0 0h9v1h-9v-1z" fill="#000002"/>
<path transform="translate(847,568)" d="m0 0c0.33 0.99 0.66 1.98 1 3-0.99 0.99-1.98 1.98-3 3 0.66-1.98 1.32-3.96 2-6z" fill="#000002"/>
<path transform="translate(1138,493)" d="m0 0h1v9h-1v-9z" fill="#000002"/>
<path transform="translate(1009,628)" d="m0 0 3 3c-0.99 0.33-1.98 0.66-3 1v-4z" fill="#000002"/>
<path transform="translate(894,587)" d="m0 0v3c-0.99 0.66-1.98 1.32-3 2 1.88-3.88 1.88-3.88 3-5z" fill="#000002"/>
<path transform="translate(745 585)" d="m0 0c1.21 0.0309 1.21 0.0309 2.44 0.0625-0.99 0.66-1.98 1.32-3 2-0.99-0.33-1.98-0.66-3-1 1-1 1-1 3.56-1.06z" fill="#000002"/>
<path transform="translate(506,558)" d="m0 0h1v8h-1v-8z" fill="#000002"/>
<path transform="translate(873,861)" d="m0 0 3 3-2 2c-0.33-1.65-0.66-3.3-1-5z" fill="#000002"/>
<path transform="translate(737,621)" d="m0 0h1v7h-1v-7z" fill="#461D95"/>
<path transform="translate(936,619)" d="m0 0h1v5c-0.66-0.33-1.32-0.66-2-1 0.33-1.32 0.66-2.64 1-4z" fill="#14082C"/>
<path transform="translate(944,616)" d="m0 0h1v5c-0.66-1.32-1.32-2.64-2-4l1-1z" fill="#000002"/>
<path transform="translate(831,616)" d="m0 0c0.33 0.66 0.66 1.32 1 2-0.938 2.12-0.938 2.12-2 4-0.0427-1.67-0.0406-3.33 0-5l1-1z" fill="#000002"/>
<path transform="translate(800,599)" d="m0 0c0.99 0.33 1.98 0.66 3 1-1.65 0.66-3.3 1.32-5 2 0.66-0.99 1.32-1.98 2-3z" fill="#000002"/>
<path transform="translate(1123,734)" d="m0 0c0.33 1.32 0.66 2.64 1 4-0.33-0.66-0.66-1.32-1-2-0.66-0.33-1.32-0.66-2-1 0.66-0.33 1.32-0.66 2-1z" fill="#170933"/>
<path transform="translate(921,631)" d="m0 0h2v3h-2v-3z" fill="#000002"/>
<path transform="translate(813,627)" d="m0 0h1v6h-1v-6z" fill="#000002"/>
<path transform="translate(935,624)" d="m0 0h1v6h-1v-6z" fill="#170933"/>
<path transform="translate(908,616)" d="m0 0c0.33 1.32 0.66 2.64 1 4-0.66-0.33-1.32-0.66-2-1 0.33-0.99 0.66-1.98 1-3z" fill="#000002"/>
<path transform="translate(784,579)" d="m0 0h3v2h-3v-2z" fill="#000002"/>
<path transform="translate(709,570)" d="m0 0c0.66 0.33 1.32 0.66 2 1-1.98 0.99-1.98 0.99-4 2 0.66-0.99 1.32-1.98 2-3z" fill="#000002"/>
<path transform="translate(509,526)" d="m0 0h1v6h-1v-6z" fill="#000002"/>
<path transform="translate(948,631)" d="m0 0c0.33 0.99 0.66 1.98 1 3h-2c0.33-0.99 0.66-1.98 1-3z" fill="#000002"/>
<path transform="translate(921,618)" d="m0 0h1v5h-1v-5z" fill="#000002"/>
<path transform="translate(736,616)" d="m0 0h1v5h-1v-5z" fill="#000002"/>
<path transform="translate(918,600)" d="m0 0v3c-0.66-0.33-1.32-0.66-2-1l2-2z" fill="#000002"/>
<path transform="translate(858,568)" d="m0 0c0.99 0.33 1.98 0.66 3 1-1.32 0.33-2.64 0.66-4 1 0.33-0.66 0.66-1.32 1-2z" fill="#000002"/>
<path transform="translate(637,550)" d="m0 0h5v1h-5v-1z" fill="#461D95"/>
<path transform="translate(1124,732)" d="m0 0h2v2h-2v-2z" fill="#000002"/>
<path transform="translate(855,628)" d="m0 0 1 4z" fill="#000002"/>
<path transform="translate(1007,618)" d="m0 0 2 1c-0.33 0.66-0.66 1.32-1 2-0.33-0.99-0.66-1.98-1-3z" fill="#230E4B"/>
<path transform="translate(788,618)" d="m0 0 1 4z" fill="#000002"/>
<path transform="translate(707,604)" d="m0 0 4 1z" fill="#000002"/>
<path transform="translate(830,602)" d="m0 0c0.66 0.33 1.32 0.66 2 1h-3l1-1z" fill="#000002"/>
<path transform="translate(983,601)" d="m0 0c0.66 0.33 1.32 0.66 2 1h-3l1-1z" fill="#000002"/>
<path transform="translate(1149,541)" d="m0 0 1 4z" fill="#000002"/>
<path transform="translate(720,941)" d="m0 0c3 1 3 1 3 1z" fill="#000002"/>
<path transform="translate(960,629)" d="m0 0 2 2h-2v-2z" fill="#000002"/>
<path transform="translate(694,613)" d="m0 0c3 1 3 1 3 1z" fill="#000002"/>
<path transform="translate(974,605)" d="m0 0c3 1 3 1 3 1z" fill="#000002"/>
<path transform="translate(761,605)" d="m0 0c3 1 3 1 3 1z" fill="#000002"/>
<path transform="translate(817,601)" d="m0 0c0.33 0.66 0.66 1.32 1 2-0.66-0.33-1.32-0.66-2-1l1-1z" fill="#000002"/>
<path transform="translate(841,593)" d="m0 0 2 1-2 1v-2z" fill="#000002"/>
<path transform="translate(796,591)" d="m0 0 2 1-2 1v-2z" fill="#000002"/>
<path transform="translate(903,573)" d="m0 0c0.33 0.66 0.66 1.32 1 2-0.66-0.33-1.32-0.66-2-1l1-1z" fill="#000002"/>
<path transform="translate(905,571)" d="m0 0c0.33 0.66 0.66 1.32 1 2-0.66-0.33-1.32-0.66-2-1l1-1z" fill="#000002"/>
<path transform="translate(744,948)" d="m0 0 2 1z" fill="#000002"/>
<path transform="translate(766,946)" d="m0 0 2 1z" fill="#000002"/>
<path transform="translate(644,908)" d="m0 0 2 1z" fill="#000002"/>
<path transform="translate(910,624)" d="m0 0 2 1z" fill="#000002"/>
<path transform="translate(991,616)" d="m0 0 2 1z" fill="#000002"/>
<path transform="translate(777,616)" d="m0 0 2 1z" fill="#000002"/>
<path transform="translate(759,604)" d="m0 0 2 1z" fill="#000002"/>
<path transform="translate(779,603)" d="m0 0 2 1z" fill="#000002"/>
<path transform="translate(712,603)" d="m0 0 2 1z" fill="#000002"/>
<path transform="translate(910,602)" d="m0 0 2 1z" fill="#000002"/>
<path transform="translate(796,602)" d="m0 0 2 1z" fill="#000002"/>
<path transform="translate(741,602)" d="m0 0 2 1z" fill="#000002"/>
<path transform="translate(714,602)" d="m0 0 2 1z" fill="#000002"/>
<path transform="translate(864,600)" d="m0 0 2 1z" fill="#000002"/>
<path transform="translate(718,600)" d="m0 0 2 1z" fill="#000002"/>
<path transform="translate(727,594)" d="m0 0 2 1z" fill="#000002"/>
<path transform="translate(800,588)" d="m0 0 2 1z" fill="#000002"/>
<path transform="translate(702,588)" d="m0 0 2 1z" fill="#000002"/>
<path transform="translate(841,566)" d="m0 0 2 1z" fill="#000002"/>
<path transform="translate(632,552)" d="m0 0 2 1z" fill="#461D95"/>
</svg>
